<?xml version="1.0" encoding="UTF-8" standalone="no"?>
<!-- Created with Inkscape (http://www.inkscape.org/) -->

<svg
   xmlns:dc="http://purl.org/dc/elements/1.1/"
   xmlns:cc="http://creativecommons.org/ns#"
   xmlns:rdf="http://www.w3.org/1999/02/22-rdf-syntax-ns#"
   xmlns:svg="http://www.w3.org/2000/svg"
   xmlns="http://www.w3.org/2000/svg"
   xmlns:xlink="http://www.w3.org/1999/xlink"
   xmlns:sodipodi="http://sodipodi.sourceforge.net/DTD/sodipodi-0.dtd"
   xmlns:inkscape="http://www.inkscape.org/namespaces/inkscape"
   width="8.5in"
   height="11in"
   viewBox="0 0 215.9 279.4"
   version="1.1"
   id="svg8"
   inkscape:version="0.92.0 r15299"
   sodipodi:docname="mentoring-flyer.svg"
   enable-background="new">
  <defs
     id="defs2">
    <clipPath
       id="clipPath314"
       clipPathUnits="userSpaceOnUse">
      <path
         id="path312"
         d="M 0,810 H 630 V 0 H 0 Z"
         inkscape:connector-curvature="0" />
    </clipPath>
    <pattern
       y="0"
       x="0"
       height="6"
       width="6"
       patternUnits="userSpaceOnUse"
       id="EMFhbasepattern" />
    <filter
       inkscape:collect="always"
       style="color-interpolation-filters:sRGB"
       id="filter7001">
      <feBlend
         inkscape:collect="always"
         mode="hard-light"
         in2="BackgroundImage"
         id="feBlend7003" />
    </filter>
    <pattern
       y="0"
       x="0"
       height="6"
       width="6"
       patternUnits="userSpaceOnUse"
       id="EMFhbasepattern-1" />
    <pattern
       y="0"
       x="0"
       height="6"
       width="6"
       patternUnits="userSpaceOnUse"
       id="EMFhbasepattern-2" />
    <pattern
       y="0"
       x="0"
       height="6"
       width="6"
       patternUnits="userSpaceOnUse"
       id="EMFhbasepattern-7" />
    <pattern
       y="0"
       x="0"
       height="6"
       width="6"
       patternUnits="userSpaceOnUse"
       id="EMFhbasepattern-5" />
  </defs>
  <sodipodi:namedview
     id="base"
     pagecolor="#ffffff"
     bordercolor="#666666"
     borderopacity="1.0"
     inkscape:pageopacity="0.0"
     inkscape:pageshadow="2"
     inkscape:zoom="0.35"
     inkscape:cx="946.07211"
     inkscape:cy="632.33969"
     inkscape:document-units="mm"
     inkscape:current-layer="layer2"
     showgrid="false"
     units="in"
     inkscape:window-width="1366"
     inkscape:window-height="745"
     inkscape:window-x="-8"
     inkscape:window-y="-8"
     inkscape:window-maximized="1" />
  <metadata
     id="metadata5">
    <rdf:RDF>
      <cc:Work
         rdf:about="">
        <dc:format>image/svg+xml</dc:format>
        <dc:type
           rdf:resource="http://purl.org/dc/dcmitype/StillImage" />
        <dc:title />
      </cc:Work>
    </rdf:RDF>
  </metadata>
  <g
     inkscape:groupmode="layer"
     id="layer3"
     inkscape:label="Background"
     style="display:none">
    <rect
       transform="translate(0,-17.6)"
       style="display:inline;opacity:1;fill:#f0ede3;fill-opacity:1;stroke:none;stroke-width:0.79374999;stroke-linecap:round;stroke-linejoin:round;stroke-miterlimit:4;stroke-dasharray:none;stroke-dashoffset:0;stroke-opacity:1"
       id="rect7923"
       width="215.89999"
       height="228.59996"
       x="2.8421709e-014"
       y="43" />
  </g>
  <g
     inkscape:label="Layer 1"
     inkscape:groupmode="layer"
     id="layer1"
     transform="translate(0,-17.6)"
     style="display:inline">
    <rect
       style="opacity:1;fill:#754a7e;fill-opacity:1;stroke:none;stroke-width:0.51237208;stroke-linecap:round;stroke-linejoin:round;stroke-miterlimit:4;stroke-dasharray:none;stroke-dashoffset:0;stroke-opacity:1"
       id="rect4485"
       width="215.89999"
       height="25.4"
       x="-3.5527137e-015"
       y="271.59998" />
    <rect
       style="opacity:1;fill:#2fbebd;fill-opacity:1;stroke:none;stroke-width:0.5123722;stroke-linecap:round;stroke-linejoin:round;stroke-miterlimit:4;stroke-dasharray:none;stroke-dashoffset:0;stroke-opacity:1"
       id="rect4485-7"
       width="215.89999"
       height="25.4"
       x="3.0517579e-006"
       y="17.6" />
    <g
       id="g8040"
       transform="translate(-3.3313911,-0.52916643)">
      <rect
         y="238.2007"
         x="3.2655656"
         height="18.174328"
         width="216.03165"
         id="rect7913"
         style="opacity:1;fill:#754a7e;fill-opacity:1;stroke:none;stroke-width:0.89202648;stroke-linecap:round;stroke-linejoin:round;stroke-miterlimit:4;stroke-dasharray:none;stroke-dashoffset:0;stroke-opacity:1" />
      <text
         id="text7902"
         y="249.42604"
         x="40.090427"
         style="font-style:normal;font-variant:normal;font-weight:normal;font-stretch:normal;font-size:8.46666622px;line-height:6.98711014px;font-family:'Source Sans Pro';-inkscape-font-specification:'Source Sans Pro, Normal';font-variant-ligatures:normal;font-variant-caps:normal;font-variant-numeric:normal;font-feature-settings:normal;text-align:start;letter-spacing:0px;word-spacing:0px;writing-mode:lr-tb;text-anchor:start;fill:#ffffff;fill-opacity:1;stroke:none;stroke-width:0.26458332px;stroke-linecap:butt;stroke-linejoin:miter;stroke-opacity:1"
         xml:space="preserve"><tspan
           style="font-style:normal;font-variant:normal;font-weight:normal;font-stretch:normal;font-size:8.46666622px;font-family:'Source Sans Pro';-inkscape-font-specification:'Source Sans Pro, Normal';font-variant-ligatures:normal;font-variant-caps:normal;font-variant-numeric:normal;font-feature-settings:normal;text-align:start;writing-mode:lr-tb;text-anchor:start;fill:#ffffff;stroke-width:0.26458332px"
           y="249.42604"
           x="40.090427"
           id="tspan7900"
           sodipodi:role="line">Become a mentor today! <tspan
   style="font-style:normal;font-variant:normal;font-weight:bold;font-stretch:normal;font-family:'Source Sans Pro';-inkscape-font-specification:'Source Sans Pro Bold'"
   id="tspan4691">Vols help Vols!</tspan></tspan></text>
    </g>
  </g>
  <g
     inkscape:groupmode="layer"
     id="layer2"
     inkscape:label="Layer 2"
     style="opacity:1;filter:url(#filter7001)">
    <rect
       style="opacity:0.98000004;fill:#ffffff;fill-opacity:1;stroke:none;stroke-width:3.37903786;stroke-linecap:round;stroke-linejoin:round;stroke-miterlimit:4;stroke-dasharray:none;stroke-dashoffset:0;stroke-opacity:1"
       id="rect4785"
       width="125.9643"
       height="55.5625"
       x="47.851025"
       y="158.06964" />
    <rect
       style="opacity:1;fill:#58595b;fill-opacity:1;stroke:none;stroke-width:3.78517389;stroke-linecap:round;stroke-linejoin:round;stroke-miterlimit:4;stroke-dasharray:none;stroke-dashoffset:0;stroke-opacity:1"
       id="rect4754"
       width="215.89999"
       height="57.195675"
       x="0"
       y="76.35511" />
    <rect
       style="opacity:0.98000004;fill:#2fbebd;fill-opacity:1;stroke:none;stroke-width:4.93317652;stroke-linecap:round;stroke-linejoin:round;stroke-miterlimit:4;stroke-dasharray:none;stroke-dashoffset:0;stroke-opacity:1"
       id="rect4631"
       width="102.08829"
       height="12.85119"
       x="56.905857"
       y="142.79927"
       ry="0" />
    <text
       xml:space="preserve"
       style="font-style:normal;font-variant:normal;font-weight:normal;font-stretch:normal;font-size:7.76111126px;line-height:6.61458302px;font-family:'Source Sans Pro';-inkscape-font-specification:'Source Sans Pro, Normal';font-variant-ligatures:normal;font-variant-caps:normal;font-variant-numeric:normal;font-feature-settings:normal;text-align:start;letter-spacing:0px;word-spacing:0px;writing-mode:lr-tb;text-anchor:start;fill:#ffffff;fill-opacity:1;stroke:none;stroke-width:0.26458332px;stroke-linecap:butt;stroke-linejoin:miter;stroke-opacity:1"
       x="15.944234"
       y="268.69846"
       id="text4505"><tspan
         sodipodi:role="line"
         id="tspan4503"
         x="15.944234"
         y="268.69846"
         style="font-style:normal;font-variant:normal;font-weight:normal;font-stretch:normal;font-size:7.76111126px;font-family:'Source Sans Pro';-inkscape-font-specification:'Source Sans Pro, Normal';font-variant-ligatures:normal;font-variant-caps:normal;font-variant-numeric:normal;font-feature-settings:normal;text-align:start;writing-mode:lr-tb;text-anchor:start;fill:#ffffff;stroke-width:0.26458332px">cfwstem.weebly.com</tspan></text>
    <text
       xml:space="preserve"
       style="font-style:normal;font-variant:normal;font-weight:bold;font-stretch:normal;font-size:12.69999981px;line-height:6.61458302px;font-family:'Source Sans Pro';-inkscape-font-specification:'Source Sans Pro Bold';font-variant-ligatures:normal;font-variant-caps:normal;font-variant-numeric:normal;font-feature-settings:normal;text-align:start;letter-spacing:0px;word-spacing:0px;writing-mode:lr-tb;text-anchor:start;fill:#ffffff;fill-opacity:1;stroke:none;stroke-width:0.26458332px;stroke-linecap:butt;stroke-linejoin:miter;stroke-opacity:1"
       x="8.8440647"
       y="16.406784"
       id="text4509"><tspan
         sodipodi:role="line"
         id="tspan4507"
         x="8.8440647"
         y="16.406784"
         style="font-style:normal;font-variant:normal;font-weight:bold;font-stretch:normal;font-size:12.69999981px;font-family:'Source Sans Pro';-inkscape-font-specification:'Source Sans Pro Bold';font-variant-ligatures:normal;font-variant-caps:normal;font-variant-numeric:normal;font-feature-settings:normal;text-align:start;writing-mode:lr-tb;text-anchor:start;fill:#ffffff;stroke-width:0.26458332px">Become a mentor to STEM students</tspan></text>
    <g
       transform="matrix(0.37629629,0,0,-0.37629629,104.52491,262.10747)"
       id="g1278">
      <path
         id="path1280"
         style="fill:#ffffff;fill-opacity:1;fill-rule:nonzero;stroke:none"
         d="m 0,0 h -21.714 c -0.744,0 -1.347,-0.604 -1.347,-1.348 v -21.714 c 0,-0.744 0.603,-1.347 1.347,-1.347 h 11.69 v 9.452 h -3.181 v 3.685 h 3.181 v 2.715 c 0,3.153 1.926,4.869 4.738,4.869 1.347,0 2.505,-0.1 2.843,-0.144 v -3.295 l -1.951,-0.001 c -1.529,0 -1.826,-0.726 -1.826,-1.794 v -2.35 h 3.648 l -0.475,-3.685 H -6.22 v -9.452 H 0 c 0.744,0 1.348,0.603 1.348,1.347 V -1.348 C 1.348,-0.604 0.744,0 0,0"
         inkscape:connector-curvature="0" />
    </g>
    <g
       transform="matrix(0.37629629,0,0,-0.37629629,-8.4803911,285.01411)"
       id="g6868">
      <g
         id="g1326"
         transform="translate(60.2813,50.3398)">
        <path
           inkscape:connector-curvature="0"
           d="M 0,0 -1.559,-3.547 C -1.6,-3.634 -1.696,-3.694 -1.801,-3.694 h -0.798 c -0.109,0 -0.206,0.06 -0.243,0.147 l -0.737,1.691 c -0.074,0.169 -0.143,0.331 -0.202,0.485 -0.069,-0.173 -0.142,-0.334 -0.211,-0.49 l -0.784,-1.691 c -0.036,-0.087 -0.132,-0.142 -0.238,-0.142 h -0.798 c -0.11,0 -0.21,0.06 -0.247,0.151 l -1.462,3.548 c -0.027,0.068 -0.014,0.146 0.033,0.206 0.05,0.06 0.128,0.097 0.21,0.097 h 0.903 c 0.114,0 0.215,-0.066 0.248,-0.157 l 0.642,-1.805 c 0.05,-0.152 0.1,-0.294 0.15,-0.431 0.055,0.137 0.115,0.279 0.179,0.435 l 0.793,1.81 c 0.037,0.087 0.133,0.148 0.238,0.148 h 0.743 c 0.11,0 0.206,-0.061 0.243,-0.148 l 0.746,-1.773 c 0.07,-0.16 0.129,-0.307 0.188,-0.449 0.047,0.133 0.096,0.275 0.161,0.435 l 0.692,1.783 c 0.032,0.091 0.133,0.152 0.243,0.152 h 0.871 c 0.083,0 0.165,-0.037 0.211,-0.097 C 0.023,0.146 0.033,0.069 0,0 m -8.373,0 -1.56,-3.547 c -0.041,-0.087 -0.137,-0.147 -0.242,-0.147 h -0.802 c -0.106,0 -0.202,0.06 -0.238,0.147 l -0.743,1.691 c -0.074,0.169 -0.137,0.331 -0.202,0.485 -0.064,-0.173 -0.137,-0.334 -0.206,-0.49 l -0.784,-1.691 c -0.036,-0.087 -0.132,-0.142 -0.238,-0.142 h -0.801 c -0.106,0 -0.207,0.06 -0.243,0.151 l -1.464,3.548 c -0.026,0.068 -0.012,0.146 0.034,0.206 0.05,0.06 0.128,0.097 0.211,0.097 h 0.902 c 0.115,0 0.211,-0.066 0.248,-0.157 l 0.642,-1.805 c 0.05,-0.152 0.1,-0.294 0.151,-0.431 0.055,0.137 0.114,0.279 0.178,0.435 l 0.793,1.81 c 0.037,0.087 0.133,0.148 0.238,0.148 h 0.743 c 0.11,0 0.207,-0.061 0.243,-0.148 l 0.751,-1.773 c 0.065,-0.16 0.124,-0.307 0.179,-0.449 0.051,0.133 0.102,0.275 0.161,0.435 l 0.692,1.783 c 0.037,0.091 0.138,0.152 0.247,0.152 h 0.867 c 0.087,0 0.169,-0.037 0.215,-0.097 0.05,-0.065 0.06,-0.142 0.028,-0.211 m -8.374,0 -1.563,-3.547 c -0.037,-0.087 -0.132,-0.147 -0.238,-0.147 h -0.803 c -0.106,0 -0.202,0.06 -0.238,0.147 l -0.743,1.691 c -0.072,0.169 -0.137,0.331 -0.202,0.485 -0.063,-0.173 -0.137,-0.334 -0.205,-0.49 l -0.783,-1.691 c -0.038,-0.087 -0.134,-0.142 -0.24,-0.142 h -0.801 c -0.106,0 -0.202,0.06 -0.243,0.151 l -1.458,3.548 c -0.032,0.068 -0.018,0.146 0.032,0.206 0.046,0.06 0.124,0.097 0.211,0.097 h 0.898 c 0.115,0 0.216,-0.066 0.248,-0.157 l 0.642,-1.805 c 0.054,-0.152 0.1,-0.294 0.15,-0.431 0.056,0.137 0.116,0.279 0.179,0.435 l 0.793,1.81 c 0.037,0.087 0.133,0.148 0.238,0.148 h 0.743 c 0.11,0 0.207,-0.061 0.243,-0.148 l 0.752,-1.773 c 0.063,-0.16 0.123,-0.307 0.183,-0.449 0.046,0.133 0.097,0.275 0.161,0.435 l 0.687,1.783 c 0.037,0.091 0.138,0.152 0.248,0.152 h 0.866 c 0.087,0 0.165,-0.037 0.215,-0.097 0.05,-0.065 0.06,-0.142 0.028,-0.211"
           style="fill:#ffffff;fill-opacity:1;fill-rule:nonzero;stroke:none"
           id="path1328" />
      </g>
      <g
         id="g1330"
         transform="translate(42.9521,57.6045)">
        <path
           inkscape:connector-curvature="0"
           d="M 0,0 C -0.289,-0.439 -0.555,-0.916 -0.798,-1.425 H -1.911 C -1.334,-0.88 -0.692,-0.403 0,0 m 5.151,1.389 c 1.458,0 2.801,-1.081 3.813,-2.814 H 1.342 c 1.01,1.733 2.356,2.814 3.809,2.814 m 7.068,-2.814 H 11.101 C 10.863,-0.916 10.592,-0.439 10.303,0 11,-0.403 11.637,-0.88 12.219,-1.425 M -4.46,-5.179 c 0.267,0.674 0.596,1.316 0.99,1.911 0.06,-0.008 0.114,-0.037 0.174,-0.037 h 1.765 c -0.188,-0.591 -0.33,-1.227 -0.459,-1.874 h 1.93 c 0.142,0.655 0.312,1.292 0.527,1.874 h 9.374 c 0.21,-0.582 0.38,-1.219 0.527,-1.874 h 1.928 c -0.128,0.647 -0.274,1.283 -0.457,1.874 h 1.765 c 0.058,0 0.113,0.029 0.173,0.037 0.39,-0.595 0.724,-1.237 0.991,-1.911 h 1.988 c -1.585,4.896 -6.182,8.448 -11.605,8.448 -5.417,0 -10.014,-3.552 -11.604,-8.448 z"
           style="fill:#ffffff;fill-opacity:1;fill-rule:nonzero;stroke:none"
           id="path1332" />
      </g>
      <g
         id="g1334"
         transform="translate(53.2554,39.7334)">
        <path
           inkscape:connector-curvature="0"
           d="M 0,0 C 0.293,0.44 0.56,0.918 0.802,1.426 H 1.916 C 1.334,0.881 0.697,0.404 0,0 m -5.152,-1.388 c -1.453,0 -2.8,1.082 -3.809,2.814 h 7.622 c -1.013,-1.732 -2.355,-2.814 -3.813,-2.814 m -7.062,2.814 h 1.113 c 0.243,-0.508 0.509,-0.986 0.798,-1.426 -0.693,0.404 -1.334,0.881 -1.911,1.426 M 4.464,5.18 C 4.198,4.506 3.864,3.869 3.469,3.27 3.414,3.282 3.359,3.306 3.3,3.306 H 1.531 C 1.719,3.901 1.865,4.534 1.993,5.18 H 0.064 C -0.083,4.524 -0.252,3.888 -0.462,3.306 h -9.374 c -0.215,0.582 -0.385,1.218 -0.527,1.874 h -1.93 c 0.129,-0.646 0.275,-1.279 0.459,-1.874 h -1.765 c -0.06,0 -0.114,-0.024 -0.174,-0.036 -0.389,0.599 -0.724,1.236 -0.99,1.91 h -1.993 c 1.589,-4.895 6.187,-8.448 11.604,-8.448 5.423,0 10.02,3.553 11.605,8.448 z"
           style="fill:#ffffff;fill-opacity:1;fill-rule:nonzero;stroke:none"
           id="path1336" />
      </g>
    </g>
    <text
       xml:space="preserve"
       style="font-style:normal;font-variant:normal;font-weight:normal;font-stretch:normal;font-size:7.76111126px;line-height:6.61458302px;font-family:'Source Sans Pro';-inkscape-font-specification:'Source Sans Pro, Normal';font-variant-ligatures:normal;font-variant-caps:normal;font-variant-numeric:normal;font-feature-settings:normal;text-align:start;letter-spacing:0px;word-spacing:0px;writing-mode:lr-tb;text-anchor:start;fill:#ffffff;fill-opacity:1;stroke:none;stroke-width:0.26458332px;stroke-linecap:butt;stroke-linejoin:miter;stroke-opacity:1"
       x="106.58144"
       y="268.88861"
       id="text6905"><tspan
         sodipodi:role="line"
         id="tspan6903"
         x="106.58144"
         y="268.88861"
         style="font-style:normal;font-variant:normal;font-weight:normal;font-stretch:normal;font-size:7.76111126px;font-family:'Source Sans Pro';-inkscape-font-specification:'Source Sans Pro, Normal';font-variant-ligatures:normal;font-variant-caps:normal;font-variant-numeric:normal;font-feature-settings:normal;text-align:start;writing-mode:lr-tb;text-anchor:start;fill:#ffffff;stroke-width:0.26458332px">/utkcfwstem</tspan></text>
    <g
       transform="matrix(0.37629629,0,0,-0.37629629,165.68443,263.85311)"
       id="g1230">
      <path
         id="path1232"
         style="fill:#ffffff;fill-opacity:1;fill-rule:nonzero;stroke:none"
         d="m 0,0 c -0.901,-0.395 -1.868,-0.664 -2.875,-0.785 1.035,0.621 1.828,1.598 2.198,2.766 C -1.643,1.41 -2.713,0.995 -3.853,0.77 c -0.915,0.97 -2.214,1.582 -3.652,1.582 -2.767,0 -5.01,-2.244 -5.01,-5.009 0,-0.391 0.044,-0.774 0.129,-1.14 -4.16,0.209 -7.847,2.202 -10.316,5.231 -0.431,-0.741 -0.677,-1.598 -0.677,-2.517 0,-1.74 0.882,-3.27 2.227,-4.168 -0.822,0.024 -1.594,0.25 -2.267,0.629 v -0.065 c 0,-2.428 1.724,-4.449 4.015,-4.909 -0.423,-0.116 -0.866,-0.176 -1.317,-0.176 -0.326,0 -0.636,0.032 -0.946,0.092 0.64,-1.989 2.488,-3.438 4.679,-3.479 -1.716,-1.345 -3.873,-2.142 -6.213,-2.142 -0.411,0 -0.81,0.024 -1.2,0.069 2.214,-1.422 4.847,-2.251 7.674,-2.251 9.206,0 14.243,7.63 14.243,14.246 0,0.217 -0.004,0.435 -0.012,0.647 C -1.521,-1.885 -0.677,-1.002 0,0"
         inkscape:connector-curvature="0" />
    </g>
    <text
       xml:space="preserve"
       style="font-style:normal;font-variant:normal;font-weight:normal;font-stretch:normal;font-size:7.76111126px;line-height:6.61458254px;font-family:'Source Sans Pro';-inkscape-font-specification:'Source Sans Pro';text-align:start;letter-spacing:0px;word-spacing:0px;writing-mode:lr-tb;text-anchor:start;fill:#ffffff;fill-opacity:1;stroke:none;stroke-width:0.26458332px;stroke-linecap:butt;stroke-linejoin:miter;stroke-opacity:1"
       x="166.68753"
       y="268.90802"
       id="text6927"><tspan
         sodipodi:role="line"
         id="tspan6925"
         x="166.68753"
         y="268.90802"
         style="font-size:7.76111126px;fill:#ffffff;stroke-width:0.26458332px">@utkcfwstem</tspan></text>
    <g
       id="g4628"
       transform="translate(0,-3.7041668)">
      <rect
         y="31.656864"
         x="0"
         height="25.4"
         width="215.89999"
         id="rect7249"
         style="display:inline;opacity:1;fill:#754a7e;fill-opacity:1;stroke:none;stroke-width:0.77198374;stroke-linecap:round;stroke-linejoin:round;stroke-miterlimit:4;stroke-dasharray:none;stroke-dashoffset:0;stroke-opacity:1" />
      <text
         xml:space="preserve"
         style="font-style:normal;font-variant:normal;font-weight:bold;font-stretch:normal;font-size:9.87777805px;line-height:131.35870695%;font-family:Calibri;-inkscape-font-specification:'Calibri, Bold';font-variant-ligatures:normal;font-variant-caps:normal;font-variant-numeric:normal;font-feature-settings:normal;text-align:center;letter-spacing:0px;word-spacing:0px;writing-mode:lr-tb;text-anchor:middle;fill:#ffffff;fill-opacity:1;stroke:none;stroke-width:0.26458332"
         x="108.18318"
         y="41.170639"
         id="text6954"><tspan
           style="font-style:normal;font-variant:normal;font-weight:bold;font-stretch:normal;font-size:9.87777805px;line-height:1.20000005em;font-family:Calibri;-inkscape-font-specification:'Calibri, Bold';font-variant-ligatures:normal;font-variant-caps:normal;font-variant-numeric:normal;font-feature-settings:normal;text-align:center;writing-mode:lr-tb;text-anchor:middle;fill:#ffffff;stroke-width:0.26458332"
           sodipodi:role="line"
           x="108.18318"
           y="41.170639"
           id="tspan6952"><tspan
             style="font-style:normal;font-variant:normal;font-weight:bold;font-stretch:normal;font-size:9.87777805px;line-height:1.20000005em;font-family:Calibri;-inkscape-font-specification:'Calibri, Bold';font-variant-ligatures:normal;font-variant-caps:normal;font-variant-numeric:normal;font-feature-settings:normal;text-align:center;writing-mode:lr-tb;text-anchor:middle;fill:#ffffff;stroke-width:0.26458332"
             id="tspan6936">Are you a graduate student or upperclassmen</tspan></tspan><tspan
           style="font-style:normal;font-variant:normal;font-weight:bold;font-stretch:normal;font-size:9.87777805px;line-height:1.20000005em;font-family:Calibri;-inkscape-font-specification:'Calibri, Bold';font-variant-ligatures:normal;font-variant-caps:normal;font-variant-numeric:normal;font-feature-settings:normal;text-align:center;writing-mode:lr-tb;text-anchor:middle;fill:#ffffff;stroke-width:0.26458332"
           sodipodi:role="line"
           x="108.18318"
           y="54.145962"
           id="tspan4750"><tspan
             dx="0 0 0 0 0 0 0 0 0 0 0 0 0 0 0 0 -0.17800611"
             dy="0 0 0 0 0 0 0 0 0 0 0 0 0 0 0 0 0"
             style="font-style:normal;font-variant:normal;font-weight:bold;font-stretch:normal;font-size:9.87777805px;line-height:1.20000005em;font-family:Calibri;-inkscape-font-specification:'Calibri, Bold';font-variant-ligatures:normal;font-variant-caps:normal;font-variant-numeric:normal;font-feature-settings:normal;text-align:center;writing-mode:lr-tb;text-anchor:middle;fill:#ffffff;stroke-width:0.26458332"
             id="tspan4752">in a STEM field?</tspan></tspan></text>
    </g>
    <text
       id="text7114"
       y="215.04837"
       x="11.527353"
       style="font-style:normal;font-variant:normal;font-weight:normal;font-stretch:normal;font-size:7.76111126px;line-height:125%;font-family:'Source Sans Pro';-inkscape-font-specification:'Source Sans Pro, Normal';font-variant-ligatures:normal;font-variant-caps:normal;font-variant-numeric:normal;font-feature-settings:normal;text-align:start;letter-spacing:0px;word-spacing:0px;writing-mode:lr-tb;text-anchor:start;fill:#000000;fill-opacity:1;stroke:none;stroke-width:0.26458332"
       xml:space="preserve"><tspan
         y="221.83934"
         x="11.527353"
         sodipodi:role="line"
         style="font-style:normal;font-variant:normal;font-weight:normal;font-stretch:normal;font-size:7.76111126px;font-family:'Source Sans Pro';-inkscape-font-specification:'Source Sans Pro, Normal';font-variant-ligatures:normal;font-variant-caps:normal;font-variant-numeric:normal;font-feature-settings:normal;text-align:start;writing-mode:lr-tb;text-anchor:start;stroke-width:0.26458332"
         id="tspan7231" /></text>
    <rect
       style="opacity:1;fill:#58595b;fill-opacity:1;stroke:#58595b;stroke-width:2.56274843;stroke-linecap:round;stroke-linejoin:round;stroke-miterlimit:4;stroke-dasharray:none;stroke-dashoffset:0;stroke-opacity:1"
       id="rect7221"
       width="150.75874"
       height="19.96558"
       x="64.203499"
       y="89.849022"
       ry="0" />
    <flowRoot
       xml:space="preserve"
       style="font-style:normal;font-variant:normal;font-weight:normal;font-stretch:normal;font-size:7.05555534px;line-height:132.03988075%;font-family:'Source Sans Pro';-inkscape-font-specification:'Source Sans Pro, Normal';font-variant-ligatures:normal;font-variant-caps:normal;font-variant-numeric:normal;font-feature-settings:normal;text-align:start;letter-spacing:0px;word-spacing:0px;writing-mode:lr-tb;text-anchor:start;fill:#ffffff;fill-opacity:1;stroke:none;stroke-width:0.26458332"
       id="flowRoot7223"><flowRegion
         id="flowRegion7225"
         style="font-style:normal;font-variant:normal;font-weight:normal;font-stretch:normal;font-size:7.05555534px;font-family:'Source Sans Pro';-inkscape-font-specification:'Source Sans Pro, Normal';font-variant-ligatures:normal;font-variant-caps:normal;font-variant-numeric:normal;font-feature-settings:normal;text-align:start;writing-mode:lr-tb;text-anchor:start;fill:#ffffff"><use
           x="0"
           y="0"
           xlink:href="#rect7221"
           id="use7227"
           width="100%"
           height="100%" /></flowRegion><flowPara
         id="flowPara4617"
         style="line-height:1.2em;-inkscape-font-specification:'Source Sans Pro Bold';font-family:'Source Sans Pro';font-weight:bold;font-style:normal;font-stretch:normal;font-variant:normal">freshman at the University of Tennessee never finish their first year of college. </flowPara><flowPara
         id="flowPara7245"
         style="line-height:1.2em;-inkscape-font-specification:'Source Sans Pro Bold';font-family:'Source Sans Pro';font-weight:bold;font-style:normal;font-stretch:normal;font-variant:normal" /></flowRoot>    <g
       id="g6860"
       transform="translate(4.2494236,4.0090429)">
      <path
         id="path306"
         style="fill:#2fbebd;fill-opacity:1;fill-rule:nonzero;stroke:none;stroke-width:0.37629628"
         d="m 87.566873,247.99424 32.267407,-1.34263 v 8.3011 l -32.267407,-1.19022 z"
         inkscape:connector-curvature="0" />
      <g
         id="g308"
         transform="matrix(0.37629629,0,0,-0.37629629,-14.503497,280.60818)">
        <g
           id="g310"
           clip-path="url(#clipPath314)">
          <g
             id="g316"
             transform="translate(281.9644,80.3252)">
            <path
               inkscape:connector-curvature="0"
               d="m 0,0 -0.28,-1.036 h -2.101 l -1.036,-4.833 h -2.018 l 2.018,9.357 c -1.079,-0.056 -1.822,-0.673 -1.822,-2.9 0,-0.714 0.182,-0.826 0.197,-0.952 -0.967,0 -1.5,0.35 -1.5,1.358 0,1.863 1.317,3.643 4.777,3.643 0.56,0 1.443,-0.168 2.326,-0.168 0.434,0 0.868,0.042 1.26,0.168 C 1.625,4.048 1.583,3.193 0.49,2.956 c -0.644,0 -1.302,0.126 -1.961,0.266 L -2.157,0 Z"
               style="fill:#ffffff;fill-opacity:1;fill-rule:nonzero;stroke:none"
               id="path318" />
          </g>
          <g
             id="g320"
             transform="translate(284.4956,84.4297)">
            <path
               inkscape:connector-curvature="0"
               d="m 0,0 c 0.617,0 1.121,-0.505 1.121,-1.121 0,-0.616 -0.504,-1.107 -1.121,-1.107 -0.616,0 -1.106,0.491 -1.106,1.107 C -1.106,-0.505 -0.616,0 0,0 m 0.645,-2.97 -1.009,-4.762 c -0.028,-0.155 -0.056,-0.309 -0.056,-0.435 0,-0.308 0.14,-0.532 0.7,-0.532 0.561,0 1.289,0.785 1.849,1.233 H 2.605 C 1.961,-8.11 0.378,-9.974 -0.714,-9.974 c -1.079,0 -1.751,0.477 -1.751,1.527 0,0.211 0.028,0.448 0.084,0.715 l 1.008,4.762 z"
               style="fill:#ffffff;fill-opacity:1;fill-rule:nonzero;stroke:none"
               id="path322" />
          </g>
          <g
             id="g324"
             transform="translate(291.5537,76.6973)">
            <path
               inkscape:connector-curvature="0"
               d="m 0,0 c -0.042,-0.154 -0.07,-0.309 -0.07,-0.448 0,-0.309 0.154,-0.519 0.7,-0.519 0.561,0 0.771,0.435 1.331,0.883 h 0.477 c -0.645,-0.645 -1.709,-2.157 -2.802,-2.157 -1.093,0 -1.737,0.476 -1.737,1.526 0,0.225 0.028,0.448 0.084,0.715 l 0.533,2.521 c 0.027,0.126 0.042,0.252 0.042,0.365 0,0.504 -0.266,0.826 -0.645,0.826 -0.336,0 -0.588,-0.098 -0.882,-0.294 L -4.16,-2.241 h -2.017 l 1.485,7.004 h 2.017 L -2.843,4.006 c 0.574,0.421 1.218,0.757 1.835,0.757 0.756,0 1.611,-0.813 1.611,-1.751 0,-0.113 0,-0.225 -0.028,-0.336 z"
               style="fill:#ffffff;fill-opacity:1;fill-rule:nonzero;stroke:none"
               id="path326" />
          </g>
          <g
             id="g328"
             transform="translate(294.5615,76.5293)">
            <path
               inkscape:connector-curvature="0"
               d="m 0,0 c 0,-0.841 0.462,-0.995 0.812,-0.995 0.323,0 0.617,0.308 0.883,0.686 C 1.709,-0.154 1.737,0 1.779,0.168 L 2.578,3.894 C 2.354,4.076 2.087,4.132 1.891,4.132 0.841,4.132 0,1.905 0,0 M 3.782,0.168 C 3.74,0 3.712,-0.154 3.712,-0.309 c 0,-0.294 0.112,-0.517 0.504,-0.517 0.098,0 0.253,0 0.365,0.042 C 4.188,-1.989 3.6,-2.073 3.124,-2.073 c -0.812,0 -1.247,0.42 -1.387,1.051 -0.42,-0.575 -1.05,-1.135 -1.891,-1.135 -1.345,0 -1.737,0.952 -1.737,1.779 0,2.409 0.869,5.295 3.67,5.295 0.336,0 0.686,-0.154 0.939,-0.351 l 0.616,2.886 2.059,0.28 z"
               style="fill:#ffffff;fill-opacity:1;fill-rule:nonzero;stroke:none"
               id="path330" />
          </g>
          <g
             id="g332"
             transform="translate(309.1665,81.46)">
            <path
               inkscape:connector-curvature="0"
               d="m 0,0 -1.009,-4.763 c -0.028,-0.154 -0.056,-0.308 -0.056,-0.434 0,-0.308 0.14,-0.532 0.701,-0.532 0.56,0 1.288,0.785 1.848,1.233 h 0.477 c -0.645,-0.645 -2.227,-2.508 -3.32,-2.508 -0.953,0 -1.597,0.364 -1.723,1.177 -0.658,-0.616 -1.415,-1.177 -2.017,-1.177 -1.079,0 -1.751,0.477 -1.751,1.526 0,0.211 0.028,0.449 0.084,0.715 L -5.757,0 h 2.017 l -1.009,-4.763 c -0.028,-0.154 -0.056,-0.308 -0.056,-0.434 0,-0.308 0.14,-0.532 0.701,-0.532 0.294,0 0.644,0.224 0.994,0.504 0.014,0.14 0.042,0.294 0.084,0.462 L -2.017,0 Z"
               style="fill:#ffffff;fill-opacity:1;fill-rule:nonzero;stroke:none"
               id="path334" />
          </g>
          <g
             id="g336"
             transform="translate(310.8853,76.3467)">
            <path
               inkscape:connector-curvature="0"
               d="m 0,0 c -0.168,0 -0.336,0.042 -0.504,0.126 0,-0.826 0.448,-1.19 1.19,-1.19 0.477,0 1.163,0.588 1.163,1.667 0,0.869 -0.631,1.611 -0.659,3.362 C 0.966,3.278 0.77,2.382 0.462,1.682 0.798,1.569 0.924,1.317 0.924,0.896 0.91,0.364 0.49,0 0,0 M 2.872,5.365 V 5.169 c 0,-2.311 1.022,-2.983 1.022,-4.622 0,-1.303 -0.827,-2.438 -2.718,-2.438 -1.611,0 -2.395,0.462 -2.395,1.835 0,1.107 0.505,1.751 1.065,1.793 0.476,0.91 0.756,2.144 0.994,3.208 z"
               style="fill:#ffffff;fill-opacity:1;fill-rule:nonzero;stroke:none"
               id="path338" />
          </g>
          <g
             id="g340"
             transform="translate(322.3525,78.4346)">
            <path
               inkscape:connector-curvature="0"
               d="m 0,0 c -0.406,0 -0.589,0.294 -0.589,0.63 0,0.406 0.238,0.841 0.617,0.98 -0.042,0.463 -0.196,0.729 -0.588,0.729 -1.317,0 -1.877,-2.858 -1.877,-3.979 0,-0.839 0.392,-1.064 0.938,-1.064 0.855,0 1.331,1.345 1.499,2.704 M 1.079,1.106 C 1.163,1.022 1.289,0.98 1.485,0.98 c 0.659,0 0.953,0.476 1.471,0.687 L 3.012,1.372 C 2.577,0.826 1.849,0.364 1.036,0.14 0.771,-2.676 -0.757,-4.062 -2.157,-4.062 c -1.498,0 -2.143,0.629 -2.143,2.296 0,3.447 1.75,4.931 3.684,4.931 1.33,0 1.667,-1.036 1.695,-2.059"
               style="fill:#ffffff;fill-opacity:1;fill-rule:nonzero;stroke:none"
               id="path342" />
          </g>
          <g
             id="g344"
             transform="translate(329.7451,76.6973)">
            <path
               inkscape:connector-curvature="0"
               d="m 0,0 c -0.042,-0.154 -0.069,-0.309 -0.069,-0.448 0,-0.309 0.154,-0.519 0.699,-0.519 0.56,0 0.771,0.435 1.332,0.883 h 0.476 c -0.645,-0.645 -1.709,-2.157 -2.802,-2.157 -1.092,0 -1.737,0.476 -1.737,1.526 0,0.225 0.028,0.448 0.084,0.715 l 0.533,2.521 c 0.028,0.126 0.042,0.252 0.042,0.365 0,0.504 -0.266,0.826 -0.645,0.826 -0.336,0 -0.588,-0.098 -0.883,-0.294 l -1.19,-5.659 h -2.017 l 1.485,7.004 h 2.017 L -2.843,4.006 c 0.574,0.421 1.219,0.757 1.834,0.757 0.757,0 1.612,-0.813 1.612,-1.751 0,-0.113 0,-0.225 -0.028,-0.336 z"
               style="fill:#ffffff;fill-opacity:1;fill-rule:nonzero;stroke:none"
               id="path346" />
          </g>
          <g
             id="g348"
             transform="translate(334.7422,84.2617)">
            <path
               inkscape:connector-curvature="0"
               d="m 0,0 -1.611,-7.564 c -0.041,-0.21 -0.07,-0.336 -0.07,-0.449 0,-0.308 0.154,-0.518 0.701,-0.518 0.56,0 1.289,0.785 1.849,1.233 h 0.476 c -0.645,-0.644 -2.228,-2.508 -3.32,-2.508 -1.079,0 -1.737,0.477 -1.737,1.527 0,0.211 0.028,0.448 0.084,0.715 l 1.555,7.284 z"
               style="fill:#ffffff;fill-opacity:1;fill-rule:nonzero;stroke:none"
               id="path350" />
          </g>
          <g
             id="g352"
             transform="translate(337.3174,84.4297)">
            <path
               inkscape:connector-curvature="0"
               d="m 0,0 c 0.616,0 1.12,-0.505 1.12,-1.121 0,-0.616 -0.504,-1.107 -1.12,-1.107 -0.616,0 -1.106,0.491 -1.106,1.107 C -1.106,-0.505 -0.616,0 0,0 m 0.645,-2.97 -1.009,-4.762 c -0.028,-0.155 -0.056,-0.309 -0.056,-0.435 0,-0.308 0.14,-0.532 0.7,-0.532 0.561,0 1.289,0.785 1.85,1.233 H 2.605 C 1.962,-8.11 0.378,-9.974 -0.714,-9.974 c -1.079,0 -1.752,0.477 -1.752,1.527 0,0.211 0.029,0.448 0.085,0.715 l 1.009,4.762 z"
               style="fill:#ffffff;fill-opacity:1;fill-rule:nonzero;stroke:none"
               id="path354" />
          </g>
          <g
             id="g356"
             transform="translate(344.375,76.6973)">
            <path
               inkscape:connector-curvature="0"
               d="m 0,0 c -0.042,-0.154 -0.07,-0.309 -0.07,-0.448 0,-0.309 0.154,-0.519 0.701,-0.519 0.56,0 0.769,0.435 1.33,0.883 h 0.477 c -0.645,-0.645 -1.709,-2.157 -2.801,-2.157 -1.094,0 -1.739,0.476 -1.739,1.526 0,0.225 0.03,0.448 0.084,0.715 l 0.534,2.521 c 0.027,0.126 0.042,0.252 0.042,0.365 0,0.504 -0.267,0.826 -0.645,0.826 -0.336,0 -0.589,-0.098 -0.882,-0.294 L -4.16,-2.241 h -2.018 l 1.486,7.004 h 2.016 L -2.844,4.006 c 0.574,0.421 1.219,0.757 1.836,0.757 0.756,0 1.611,-0.813 1.611,-1.751 0,-0.113 0,-0.225 -0.029,-0.336 z"
               style="fill:#ffffff;fill-opacity:1;fill-rule:nonzero;stroke:none"
               id="path358" />
          </g>
          <g
             id="g360"
             transform="translate(349.3867,80.8438)">
            <path
               inkscape:connector-curvature="0"
               d="m 0,0 c -0.785,0 -1.43,-1.583 -1.724,-2.899 1.289,0.013 2.2,1.12 2.214,2.114 C 0.49,-0.49 0.42,0 0,0 m -3.769,-4.16 c 0,1.778 0.757,4.902 3.306,4.902 1.149,0 1.793,-0.476 1.793,-1.457 0,-1.709 -1.835,-2.689 -3.166,-2.857 -0.027,-0.224 -0.041,-0.435 -0.041,-0.603 0,-0.924 0.462,-1.204 1.008,-1.204 0.658,0 1.219,0.378 1.793,0.897 0,-1.513 -1.219,-1.906 -2.619,-1.906 -1.345,0 -2.074,1.023 -2.074,2.228"
               style="fill:#ffffff;fill-opacity:1;fill-rule:nonzero;stroke:none"
               id="path362" />
          </g>
          <g
             id="g364"
             transform="translate(353.3477,80.8291)">
            <path
               inkscape:connector-curvature="0"
               d="m 0,0 c 0.616,0 1.121,-0.504 1.121,-1.12 0,-0.616 -0.505,-1.107 -1.121,-1.107 -0.616,0 -1.106,0.491 -1.106,1.107 0,0.616 0.49,1.12 1.106,1.12 m -0.7,-3.361 c 0.616,0 1.12,-0.504 1.12,-1.121 0,-0.617 -0.504,-1.107 -1.12,-1.107 -0.616,0 -1.107,0.49 -1.107,1.107 0,0.617 0.491,1.121 1.107,1.121"
               style="fill:#ffffff;fill-opacity:1;fill-rule:nonzero;stroke:none"
               id="path366" />
          </g>
        </g>
      </g>
    </g>
    <g
       id="g7054"
       transform="translate(-14.287501,-5.064881)">
      <circle
         r="28.597837"
         cy="109.68385"
         cx="46.772167"
         id="path4511"
         style="opacity:1;fill:#ff8200;fill-opacity:1;stroke:none;stroke-width:0.79374999;stroke-linecap:round;stroke-linejoin:round;stroke-miterlimit:4;stroke-dasharray:none;stroke-dashoffset:0;stroke-opacity:1" />
      <text
         id="text4515"
         y="122.06209"
         x="22.504364"
         style="font-style:normal;font-variant:normal;font-weight:normal;font-stretch:normal;font-size:35.27777863px;line-height:6.61458302px;font-family:'Lobster 1.4';-inkscape-font-specification:'Lobster 1.4, Normal';font-variant-ligatures:normal;font-variant-caps:normal;font-variant-numeric:normal;font-feature-settings:normal;text-align:start;letter-spacing:0px;word-spacing:0px;writing-mode:lr-tb;text-anchor:start;opacity:0.98000004;fill:#ffffff;fill-opacity:1;stroke:none;stroke-width:0.26458332px;stroke-linecap:butt;stroke-linejoin:miter;stroke-opacity:1"
         xml:space="preserve"><tspan
           sodipodi:role="line"
           id="tspan4615"
           x="22.504364"
           y="122.06209">14%</tspan></text>
    </g>
    <g
       id="g8063"
       transform="translate(-260.52226,-3.3261879)">
      <text
         xml:space="preserve"
         style="font-style:normal;font-variant:normal;font-weight:400;font-size:5.62239599px;line-height:125%;font-family:Calibri;text-align:start;letter-spacing:0px;word-spacing:0px;text-anchor:start;fill:#000000;fill-opacity:1;stroke:none;stroke-width:0.26458332"
         x="289.64749"
         y="252.36284"
         id="text8007"><tspan
           style="stroke-width:0.26458332"
           sodipodi:role="line"
           x="0"
           y="0"
           id="tspan8005"><tspan
             style="font-style:normal;font-variant:normal;font-weight:400;font-size:5.62239599px;font-family:Calibri;fill:#000000;stroke-width:0.26458332"
             id="tspan7997" /></tspan></text>
      <g
         id="g4775"
         transform="translate(0,12.700002)">
        <rect
           y="233.10536"
           x="275.38638"
           height="8.3154755"
           width="186.17175"
           id="rect4717"
           style="opacity:0.98000004;fill:#ffffff;fill-opacity:1;stroke:none;stroke-width:2.62017846;stroke-linecap:round;stroke-linejoin:round;stroke-miterlimit:4;stroke-dasharray:none;stroke-dashoffset:0;stroke-opacity:1" />
        <flowRoot
           id="flowRoot4719"
           style="font-style:normal;font-variant:normal;font-weight:400;font-size:5.62239599px;line-height:125%;font-family:Calibri;text-align:start;letter-spacing:0px;word-spacing:0px;text-anchor:start;fill:#000000;fill-opacity:1;stroke:none;stroke-width:0.26458332"
           xml:space="preserve"><flowRegion
             id="flowRegion4721"><use
               height="100%"
               width="100%"
               id="use4723"
               xlink:href="#rect4717"
               y="0"
               x="0" /></flowRegion><flowPara
             style="font-style:normal;font-variant:normal;font-weight:normal;font-stretch:normal;font-family:'Source Sans Pro';-inkscape-font-specification:'Source Sans Pro'"
             id="flowPara4725">To sign up, contact (<flowSpan
   id="flowSpan4744"
   style="font-style:normal;font-variant:normal;font-weight:normal;font-stretch:normal;font-family:'Source Sans Pro';-inkscape-font-specification:'Source Sans Pro';fill:#754a7e">cfwstem@utk.edu</flowSpan>) or visit <flowSpan
   id="flowSpan4742"
   style="font-style:normal;font-variant:normal;font-weight:normal;font-stretch:normal;font-family:'Source Sans Pro';-inkscape-font-specification:'Source Sans Pro';fill:#754a7e">cfwstem.weebly.com/mentoring </flowSpan></flowPara></flowRoot>        <path
           sodipodi:nodetypes="ccccc"
           id="path7983"
           d="m 322.01815,239.28028 h 42.34851 v 0.38071 h -42.34851 z"
           style="fill:#754a7e;fill-opacity:1;fill-rule:evenodd;stroke:none;stroke-width:0.23406126"
           inkscape:connector-curvature="0" />
        <path
           sodipodi:nodetypes="ccccc"
           id="path7983-6"
           d="m 384.39713,239.28087 h 76.45543 v 0.3613 h -76.45543 z"
           style="opacity:1;fill:#754a7e;fill-opacity:1;fill-rule:evenodd;stroke:none;stroke-width:0.29372451"
           inkscape:connector-curvature="0" />
      </g>
    </g>
    <text
       xml:space="preserve"
       style="font-style:normal;font-variant:normal;font-weight:normal;font-stretch:normal;font-size:6.3499999px;line-height:6.61458206px;font-family:'Source Sans Pro';-inkscape-font-specification:'Source Sans Pro, Normal';font-variant-ligatures:normal;font-variant-caps:normal;font-variant-numeric:normal;font-feature-settings:normal;text-align:start;letter-spacing:0px;word-spacing:0px;writing-mode:lr-tb;text-anchor:start;fill:#ffffff;fill-opacity:1;stroke:none;stroke-width:0.26458332px;stroke-linecap:butt;stroke-linejoin:miter;stroke-opacity:1;"
       x="61.988102"
       y="119.81847"
       id="text4671"><tspan
         sodipodi:role="line"
         x="61.988102"
         y="119.81847"
         style="font-style:normal;font-variant:normal;font-weight:normal;font-stretch:normal;font-size:6.3499999px;line-height:1.20000005em;font-family:'Source Sans Pro';-inkscape-font-specification:'Source Sans Pro, Normal';font-variant-ligatures:normal;font-variant-caps:normal;font-variant-numeric:normal;font-feature-settings:normal;text-align:start;writing-mode:lr-tb;text-anchor:start;stroke-width:0.26458332px;fill:#ffffff;"
         id="tspan4673">YOU could be the influence that helps someone earn their </tspan><tspan
         sodipodi:role="line"
         x="61.988102"
         y="127.43847"
         style="font-style:normal;font-variant:normal;font-weight:normal;font-stretch:normal;font-size:6.3499999px;line-height:1.20000005em;font-family:'Source Sans Pro';-inkscape-font-specification:'Source Sans Pro, Normal';font-variant-ligatures:normal;font-variant-caps:normal;font-variant-numeric:normal;font-feature-settings:normal;text-align:start;writing-mode:lr-tb;text-anchor:start;stroke-width:0.26458332px;fill:#ffffff;"
         id="tspan4681">degree and make the most of their college experience.</tspan></text>
    <flowRoot
       xml:space="preserve"
       style="font-style:normal;font-variant:normal;font-weight:normal;font-stretch:normal;font-size:7.76111126px;line-height:125%;font-family:'Lobster 1.4';-inkscape-font-specification:'Lobster 1.4, Normal';font-variant-ligatures:normal;font-variant-caps:normal;font-variant-numeric:normal;font-feature-settings:normal;text-align:start;letter-spacing:0px;word-spacing:0px;writing-mode:lr-tb;text-anchor:start;fill:#ffffff;fill-opacity:1;stroke:none;stroke-width:0.26458332"
       id="flowRoot4683"
       transform="translate(4.6146184,1.86581)"><flowRegion
         id="flowRegion4685"><use
           x="0"
           y="0"
           xlink:href="#rect4631"
           id="use4687"
           width="100%"
           height="100%" /></flowRegion><flowPara
         id="flowPara4689"
         style="font-size:9.87777778px">As a mentor, you would:</flowPara></flowRoot>    <rect
       style="opacity:0.98000004;fill:#ffffff;fill-opacity:1;stroke:none;stroke-width:3.89910555;stroke-linecap:round;stroke-linejoin:round;stroke-miterlimit:4;stroke-dasharray:none;stroke-dashoffset:0;stroke-opacity:1"
       id="rect4756"
       width="190.5"
       height="22.584017"
       x="12.7"
       y="53.343994" />
    <flowRoot
       xml:space="preserve"
       style="font-style:normal;font-variant:normal;font-weight:normal;font-stretch:normal;font-size:8.46666622px;line-height:132.03988075%;font-family:'Source Sans Pro';-inkscape-font-specification:'Source Sans Pro, Normal';font-variant-ligatures:normal;font-variant-caps:normal;font-variant-numeric:normal;font-feature-settings:normal;text-align:start;letter-spacing:0px;word-spacing:0px;writing-mode:lr-tb;text-anchor:start;fill:#000000;fill-opacity:1;stroke:none;stroke-width:0.26458332"
       id="flowRoot4758"><flowRegion
         id="flowRegion4760"><use
           x="0"
           y="0"
           xlink:href="#rect4756"
           id="use4762"
           width="100%"
           height="100%" /></flowRegion><flowPara
         id="flowPara4764"
         style="text-anchor:middle;text-align:center">Consider becoming a mentor to students who share your interests and field of study!</flowPara></flowRoot>    <flowRoot
       xml:space="preserve"
       style="font-style:normal;font-variant:normal;font-weight:normal;font-stretch:normal;font-size:7.76111126px;line-height:135.88756323%;font-family:'Source Sans Pro';-inkscape-font-specification:'Source Sans Pro, Normal';font-variant-ligatures:normal;font-variant-caps:normal;font-variant-numeric:normal;font-feature-settings:normal;text-align:center;letter-spacing:0px;word-spacing:0px;writing-mode:lr-tb;text-anchor:middle;fill:#000000;fill-opacity:1;stroke:none;stroke-width:0.26458332"
       id="flowRoot4787"
       transform="translate(-1.5988793)"><flowRegion
         id="flowRegion4789"><use
           x="0"
           y="0"
           xlink:href="#rect4785"
           id="use4791"
           width="100%"
           height="100%" /></flowRegion><flowPara
         id="flowPara4793"
         style="text-align:justify;text-anchor:start">Give professional development advice </flowPara><flowPara
         id="flowPara4795"
         style="text-align:justify;text-anchor:start">Help mentees make connections to </flowPara><flowPara
         id="flowPara4822"
         style="text-align:justify;text-anchor:start">people working in their field  </flowPara><flowPara
         id="flowPara4797"
         style="text-align:justify;text-anchor:start">Provide insight into balancing </flowPara><flowPara
         style="text-align:justify;text-anchor:start"
         id="flowPara4824">studies, friends, and extracurriculars  </flowPara></flowRoot>    <circle
       style="opacity:0.98000004;fill:#2fbebd;fill-opacity:1;stroke:none;stroke-width:2.07383704;stroke-linecap:round;stroke-linejoin:round;stroke-miterlimit:4;stroke-dasharray:none;stroke-dashoffset:0;stroke-opacity:1"
       id="path4799"
       cx="41.206966"
       cy="162.70212"
       r="2.54" />
    <circle
       style="opacity:0.98000004;fill:#2fbebd;fill-opacity:1;stroke:none;stroke-width:2.07383704;stroke-linecap:round;stroke-linejoin:round;stroke-miterlimit:4;stroke-dasharray:none;stroke-dashoffset:0;stroke-opacity:1"
       id="path4799-2"
       cx="41.206966"
       cy="173.75566"
       r="2.54" />
    <circle
       style="opacity:0.98000004;fill:#2fbebd;fill-opacity:1;stroke:none;stroke-width:2.07383704;stroke-linecap:round;stroke-linejoin:round;stroke-miterlimit:4;stroke-dasharray:none;stroke-dashoffset:0;stroke-opacity:1"
       id="path4799-27"
       cx="41.206966"
       cy="194.31"
       r="2.54" />
  </g>
</svg>
