<?xml version="1.0" encoding="UTF-8" standalone="no"?>
<!-- Created with Inkscape (http://www.inkscape.org/) -->

<svg
   xmlns:dc="http://purl.org/dc/elements/1.1/"
   xmlns:cc="http://creativecommons.org/ns#"
   xmlns:rdf="http://www.w3.org/1999/02/22-rdf-syntax-ns#"
   xmlns:svg="http://www.w3.org/2000/svg"
   xmlns="http://www.w3.org/2000/svg"
   xmlns:sodipodi="http://sodipodi.sourceforge.net/DTD/sodipodi-0.dtd"
   xmlns:inkscape="http://www.inkscape.org/namespaces/inkscape"
   width="3in"
   height="3in"
   viewBox="0 0 76.199998 76.200002"
   version="1.1"
   id="svg8"
   inkscape:version="0.92.0 r15299"
   sodipodi:docname="pipeline-logo-dark.svg">
  <defs
     id="defs2">
    <inkscape:perspective
       id="perspective7456"
       inkscape:persp3d-origin="372.04724 : 350.78739 : 1"
       inkscape:vp_z="744.09448 : 526.18109 : 1"
       inkscape:vp_y="0 : 1000 : 0"
       inkscape:vp_x="0 : 526.18109 : 1"
       sodipodi:type="inkscape:persp3d" />
  </defs>
  <sodipodi:namedview
     id="base"
     pagecolor="#ffffff"
     bordercolor="#666666"
     borderopacity="1.0"
     inkscape:pageopacity="0.0"
     inkscape:pageshadow="2"
     inkscape:zoom="2"
     inkscape:cx="166.44422"
     inkscape:cy="106.1385"
     inkscape:document-units="mm"
     inkscape:current-layer="layer5"
     showgrid="false"
     units="in"
     inkscape:pagecheckerboard="true"
     inkscape:window-width="1920"
     inkscape:window-height="1057"
     inkscape:window-x="1358"
     inkscape:window-y="-8"
     inkscape:window-maximized="1"
     showguides="false"
     inkscape:guide-bbox="true">
    <sodipodi:guide
       position="25.040923,49.609375"
       orientation="-0.5,0.8660254"
       id="guide4649"
       inkscape:locked="false"
       inkscape:label=""
       inkscape:color="rgb(0,0,255)" />
    <sodipodi:guide
       position="28.814827,45.92224"
       orientation="-0.5,0.8660254"
       id="guide4651"
       inkscape:locked="false"
       inkscape:label=""
       inkscape:color="rgb(0,0,255)" />
    <sodipodi:guide
       position="26.274011,56.187298"
       orientation="-0.5,0.8660254"
       id="guide4653"
       inkscape:locked="false"
       inkscape:label=""
       inkscape:color="rgb(0,0,255)" />
    <sodipodi:guide
       position="33.591069,48.679805"
       orientation="0.8660254,0.5"
       id="guide4655"
       inkscape:locked="false"
       inkscape:label=""
       inkscape:color="rgb(0,0,255)" />
    <sodipodi:guide
       position="42.477001,43.449129"
       orientation="0.8660254,0.5"
       id="guide4657"
       inkscape:locked="false"
       inkscape:label=""
       inkscape:color="rgb(0,0,255)" />
    <sodipodi:guide
       position="48.343001,43.449129"
       orientation="0.8660254,0.5"
       id="guide4659"
       inkscape:locked="false"
       inkscape:label=""
       inkscape:color="rgb(0,0,255)" />
  </sodipodi:namedview>
  <metadata
     id="metadata5">
    <rdf:RDF>
      <cc:Work
         rdf:about="">
        <dc:format>image/svg+xml</dc:format>
        <dc:type
           rdf:resource="http://purl.org/dc/dcmitype/StillImage" />
        <dc:title></dc:title>
      </cc:Work>
    </rdf:RDF>
  </metadata>
  <g
     inkscape:groupmode="layer"
     id="layer4"
     inkscape:label="Background">
    <rect
       style="opacity:1;fill:#ffffff;fill-opacity:1;stroke:none;stroke-width:0.57020974;stroke-linecap:butt;stroke-linejoin:round;stroke-miterlimit:10;stroke-dasharray:1.71062927, 0.57020974999999996;stroke-dashoffset:0;stroke-opacity:1"
       id="rect4485"
       width="76.199997"
       height="76.199997"
       x="0.06614583"
       y="-0.13229913" />
  </g>
  <g
     inkscape:label="Layer 1"
     inkscape:groupmode="layer"
     id="layer1"
     transform="translate(0,-220.79998)">
    <path
       id="path4573"
       style="fill:none;fill-opacity:1;fill-rule:evenodd;stroke:#754a7e;stroke-width:1.58749998;stroke-linecap:round;stroke-linejoin:miter;stroke-miterlimit:4;stroke-dasharray:none;stroke-opacity:1"
       d="m 32.313883,257.48001 -2.390082,-3.77815 m 2.390082,3.77815 16.841742,29.90951 m 0,0 -9.113695,-0.0501 m 0,0 -17.509916,-29.85941 m 25.24066,-8.96018 c -2e-6,5.34207 -4.330606,9.67267 -9.672675,9.67267 -5.342069,0 -9.672672,-4.3306 -9.672674,-9.67267 2e-6,-5.34207 4.330605,-9.67267 9.672674,-9.67267 5.342069,0 9.672673,4.3306 9.672675,9.67267 z m -25.228556,8.97953 c -4.111886,-7.122 -2.982542,-16.08611 2.753472,-21.85554 5.736014,-5.76943 14.648425,-6.90558 21.729489,-2.77006 7.081066,4.13552 10.565126,12.51151 8.494542,20.42165 -2.070587,7.91013 -9.179516,13.38201 -17.332393,13.34108"
       inkscape:connector-curvature="0"
       sodipodi:nodetypes="cccccccsssssscccss" />
    <circle
       style="opacity:1;fill:#754a7e;fill-opacity:1;stroke:#754a7e;stroke-width:1.65935242;stroke-linecap:round;stroke-linejoin:round;stroke-miterlimit:4;stroke-dasharray:none;stroke-dashoffset:0;stroke-opacity:1"
       id="path4618"
       cx="38.099998"
       cy="248.47578"
       r="8.695282" />
  </g>
  <g
     inkscape:groupmode="layer"
     id="layer3"
     inkscape:label="Extra bolts"
     style="display:none">
    <g
       id="g4521"
       transform="translate(-2.4000533,-4.1850195)"
       style="fill:none;stroke:#ffffff">
      <path
         sodipodi:nodetypes="cc"
         inkscape:connector-curvature="0"
         id="path4541-1"
         d="M 29.21,291.57853 H 62.23"
         style="fill:none;fill-rule:evenodd;stroke:#ffffff;stroke-width:1.58749998;stroke-linecap:butt;stroke-linejoin:miter;stroke-miterlimit:4;stroke-dasharray:none;stroke-opacity:1"
         transform="translate(0,-220.79998)" />
      <path
         sodipodi:nodetypes="cc"
         inkscape:connector-curvature="0"
         id="path4541-1-0"
         d="M 29.21,288.23901 H 62.23"
         style="fill:none;fill-rule:evenodd;stroke:#ffffff;stroke-width:1.58749998;stroke-linecap:butt;stroke-linejoin:miter;stroke-miterlimit:4;stroke-dasharray:none;stroke-opacity:1"
         transform="translate(0,-220.79998)" />
      <path
         inkscape:connector-curvature="0"
         id="path4598"
         d="m 32.600447,286.13316 v 7.55953"
         style="fill:none;fill-rule:evenodd;stroke:#ffffff;stroke-width:1.58749998;stroke-linecap:butt;stroke-linejoin:miter;stroke-miterlimit:4;stroke-dasharray:none;stroke-opacity:1"
         transform="translate(0,-220.79998)" />
      <path
         inkscape:connector-curvature="0"
         id="path4598-2"
         d="m 59.039879,286.13316 v 7.55953"
         style="fill:none;fill-rule:evenodd;stroke:#ffffff;stroke-width:1.58749998;stroke-linecap:butt;stroke-linejoin:miter;stroke-miterlimit:4;stroke-dasharray:none;stroke-opacity:1"
         transform="translate(0,-220.79998)" />
      <path
         inkscape:connector-curvature="0"
         id="path4598-9"
         d="m 35.71875,286.13316 v 7.55953"
         style="fill:none;fill-rule:evenodd;stroke:#ffffff;stroke-width:1.58749998;stroke-linecap:butt;stroke-linejoin:miter;stroke-miterlimit:4;stroke-dasharray:none;stroke-opacity:1"
         transform="translate(0,-220.79998)" />
      <path
         inkscape:connector-curvature="0"
         id="path4598-9-6"
         d="m 55.997173,286.13316 v 7.55953"
         style="fill:none;fill-rule:evenodd;stroke:#ffffff;stroke-width:1.58749998;stroke-linecap:butt;stroke-linejoin:miter;stroke-miterlimit:4;stroke-dasharray:none;stroke-opacity:1"
         transform="translate(0,-220.79998)" />
    </g>
  </g>
  <g
     inkscape:groupmode="layer"
     id="layer5"
     inkscape:label="Attachment">
    <path
       style="opacity:1;fill:#754a7e;fill-opacity:1;stroke:none;stroke-width:5.01343679;stroke-linecap:round;stroke-linejoin:round;stroke-miterlimit:4;stroke-dasharray:none;stroke-dashoffset:0;stroke-opacity:1"
       d="M 125.625 232.89844 A 5.9999995 5.9999995 0 0 0 119.625 238.89844 A 5.9999995 5.9999995 0 0 0 125.625 244.89844 A 5.9999995 5.9999995 0 0 0 129.55664 243.41992 L 191.5625 243.41992 A 5.9999996 5.9999996 0 0 0 195.5 244.89844 A 5.9999996 5.9999996 0 0 0 201.5 238.89844 A 5.9999996 5.9999996 0 0 0 195.5 232.89844 A 5.9999996 5.9999996 0 0 0 191.56836 234.375 L 129.5625 234.375 A 5.9999995 5.9999995 0 0 0 125.625 232.89844 z M 126.43359 236.39844 A 2.4989187 2.4989187 0 0 1 128.93164 238.89844 A 2.4989187 2.4989187 0 0 1 126.43359 241.39648 A 2.4989187 2.4989187 0 0 1 123.93359 238.89844 A 2.4989187 2.4989187 0 0 1 126.43359 236.39844 z M 133.15039 236.39844 A 2.4989187 2.4989187 0 0 1 135.65039 238.89844 A 2.4989187 2.4989187 0 0 1 133.15039 241.39648 A 2.4989187 2.4989187 0 0 1 130.65234 238.89844 A 2.4989187 2.4989187 0 0 1 133.15039 236.39844 z M 188.75586 236.4043 A 2.4935257 2.4935257 0 0 1 191.25 238.89844 A 2.4935257 2.4935257 0 0 1 188.75586 241.39062 A 2.4935257 2.4935257 0 0 1 186.26172 238.89844 A 2.4935257 2.4935257 0 0 1 188.75586 236.4043 z M 195.45898 236.4043 A 2.4935257 2.4935257 0 0 1 197.95117 238.89844 A 2.4935257 2.4935257 0 0 1 195.45898 241.39062 A 2.4935257 2.4935257 0 0 1 192.96484 238.89844 A 2.4935257 2.4935257 0 0 1 195.45898 236.4043 z "
       transform="scale(0.26458333)"
       id="path4780-4" />
  </g>
  <g
     inkscape:groupmode="layer"
     id="layer2"
     inkscape:label="4 circles"
     style="display:none">
    <circle
       style="opacity:1;fill:none;fill-opacity:1;stroke:#ffffff;stroke-width:0.90991372;stroke-linecap:round;stroke-linejoin:round;stroke-miterlimit:4;stroke-dasharray:none;stroke-dashoffset:0;stroke-opacity:1"
       id="path4620"
       cx="34.800587"
       cy="26.572643"
       r="2.0850432" />
    <circle
       style="opacity:1;fill:none;fill-opacity:1;stroke:#ffffff;stroke-width:0.90991372;stroke-linecap:round;stroke-linejoin:round;stroke-miterlimit:4;stroke-dasharray:none;stroke-dashoffset:0;stroke-opacity:1"
       id="path4620-1"
       cx="39.215897"
       cy="23.987621"
       r="2.0850432" />
    <circle
       style="opacity:1;fill:none;fill-opacity:1;stroke:#ffffff;stroke-width:0.90991372;stroke-linecap:round;stroke-linejoin:round;stroke-miterlimit:4;stroke-dasharray:none;stroke-dashoffset:0;stroke-opacity:1"
       id="path4620-8"
       cx="37.355568"
       cy="30.931622"
       r="2.0850432" />
    <circle
       style="opacity:1;fill:none;fill-opacity:1;stroke:#ffffff;stroke-width:0.90991372;stroke-linecap:round;stroke-linejoin:round;stroke-miterlimit:4;stroke-dasharray:none;stroke-dashoffset:0;stroke-opacity:1"
       id="path4620-7"
       cx="41.755768"
       cy="28.362194"
       r="2.0850432" />
  </g>
</svg>
