<?xml version="1.0" encoding="UTF-8" standalone="no"?>
<!-- Created with Inkscape (http://www.inkscape.org/) -->

<svg
   xmlns:dc="http://purl.org/dc/elements/1.1/"
   xmlns:cc="http://creativecommons.org/ns#"
   xmlns:rdf="http://www.w3.org/1999/02/22-rdf-syntax-ns#"
   xmlns:svg="http://www.w3.org/2000/svg"
   xmlns="http://www.w3.org/2000/svg"
   xmlns:sodipodi="http://sodipodi.sourceforge.net/DTD/sodipodi-0.dtd"
   xmlns:inkscape="http://www.inkscape.org/namespaces/inkscape"
   width="4in"
   height="1.25in"
   viewBox="0 0 101.6 31.75"
   version="1.1"
   id="svg5401"
   inkscape:version="0.92.0 r15299"
   sodipodi:docname="pipeline-word-mark-dark.svg">
  <defs
     id="defs5395">
    <inkscape:perspective
       sodipodi:type="inkscape:persp3d"
       inkscape:vp_x="0 : 526.18108 : 1"
       inkscape:vp_y="0 : 999.99999 : 0"
       inkscape:vp_z="744.09448 : 526.18108 : 1"
       inkscape:persp3d-origin="372.04724 : 350.78739 : 1"
       id="perspective7456" />
  </defs>
  <sodipodi:namedview
     id="base"
     pagecolor="#ffffff"
     bordercolor="#666666"
     borderopacity="1.0"
     inkscape:pageopacity="0.0"
     inkscape:pageshadow="2"
     inkscape:zoom="1.979899"
     inkscape:cx="209.1292"
     inkscape:cy="-18.643339"
     inkscape:document-units="mm"
     inkscape:current-layer="layer1"
     showgrid="false"
     units="in"
     width="5in"
     inkscape:window-width="1920"
     inkscape:window-height="1057"
     inkscape:window-x="1358"
     inkscape:window-y="-8"
     inkscape:window-maximized="1"
     fit-margin-top="0"
     fit-margin-left="0"
     fit-margin-right="0"
     fit-margin-bottom="0" />
  <metadata
     id="metadata5398">
    <rdf:RDF>
      <cc:Work
         rdf:about="">
        <dc:format>image/svg+xml</dc:format>
        <dc:type
           rdf:resource="http://purl.org/dc/dcmitype/StillImage" />
        <dc:title></dc:title>
      </cc:Work>
    </rdf:RDF>
  </metadata>
  <g
     inkscape:label="Layer 1"
     inkscape:groupmode="layer"
     id="layer1"
     transform="translate(-11.394569,-228.07837)">
    <rect
       style="opacity:1;fill:#754a7e;fill-opacity:1;stroke:#754a7e;stroke-width:0.24920045;stroke-linecap:round;stroke-linejoin:round;stroke-miterlimit:4;stroke-dasharray:none;stroke-dashoffset:0;stroke-opacity:1"
       id="rect5946"
       width="101.3508"
       height="31.500799"
       x="11.519169"
       y="228.20297" />
    <g
       id="g5974"
       transform="matrix(0.33333335,0,0,0.33333335,12.637567,230.70052)">
      <g
         inkscape:label="Background"
         id="layer4">
        <rect
           y="-0.13229913"
           x="0.06614583"
           height="76.199997"
           width="76.199997"
           id="rect4485"
           style="opacity:1;fill:#754a7e;fill-opacity:1;stroke:none;stroke-width:0.57020974;stroke-linecap:butt;stroke-linejoin:round;stroke-miterlimit:10;stroke-dasharray:1.71062927, 0.57020975;stroke-dashoffset:0;stroke-opacity:1" />
      </g>
      <g
         transform="translate(0,-220.79998)"
         id="layer1-2"
         inkscape:label="Layer 1">
        <path
           sodipodi:nodetypes="cccccccsssssscccss"
           inkscape:connector-curvature="0"
           d="m 29.32691,253.97107 -0.76231,-4.4052 m 0.76231,4.4052 4.113869,34.07782 m 0,0 h -8.400786 m 0,0 -4.750349,-37.82119 m 26.748241,1.38105 c -2.044323,4.93544 -7.702529,7.27914 -12.637957,5.23481 -4.935429,-2.04431 -7.279135,-7.70251 -5.234815,-12.63796 2.044323,-4.93541 7.702528,-7.27913 12.637956,-5.2348 4.93543,2.04432 7.279137,7.70253 5.234816,12.63795 z m -26.744466,-1.35854 c -1.073414,-8.15342 3.400381,-16.003 10.907631,-19.13817 7.507252,-3.13519 16.176032,-0.77422 21.135488,5.75631 4.959455,6.53052 4.972954,15.60223 0.03291,22.11786 -4.940049,6.51563 -13.601841,8.85051 -21.118454,5.69273"
           style="fill:none;fill-opacity:1;fill-rule:evenodd;stroke:#ffffff;stroke-width:1.58749998;stroke-linecap:round;stroke-linejoin:miter;stroke-miterlimit:4;stroke-dasharray:none;stroke-opacity:1"
           id="path4573" />
        <circle
           transform="rotate(22.5)"
           r="8.695282"
           cy="214.41151"
           cx="130.07117"
           id="path4618"
           style="opacity:1;fill:#ffffff;fill-opacity:1;stroke:#ffffff;stroke-width:1.65935242;stroke-linecap:round;stroke-linejoin:round;stroke-miterlimit:4;stroke-dasharray:none;stroke-dashoffset:0;stroke-opacity:1" />
      </g>
      <g
         inkscape:label="Attachment"
         id="layer5">
        <path
           sodipodi:nodetypes="csccccscccccccccccccccccccccccc"
           inkscape:connector-curvature="0"
           id="path4780-4"
           d="m 19.667031,62.149071 c -0.876752,0 -1.5875,0.710747 -1.5875,1.5875 0,0.876752 0.710748,1.5875 1.5875,1.5875 0.382556,-7.94e-4 0.751959,-0.139713 1.040247,-0.391192 h 16.405716 c 0.28869,0.251828 0.658707,0.390768 1.041797,0.391192 0.876753,0 1.5875,-0.710748 1.5875,-1.5875 0,-0.876753 -0.710747,-1.5875 -1.5875,-1.5875 -0.382489,5.29e-4 -0.751885,0.139382 -1.040246,0.390673 H 20.708828 c -0.288764,-0.25164 -0.658773,-0.390393 -1.041797,-0.390673 z m 0,0.926041 c 0.365178,1.27e-4 0.661088,0.296281 0.660929,0.661459 -1.27e-4,0.364974 -0.295955,0.660813 -0.660929,0.66094 -0.365175,1.58e-4 -0.661329,-0.295765 -0.661458,-0.66094 -1.59e-4,-0.365379 0.296079,-0.661617 0.661458,-0.661459 z m 1.776942,0 c 0.365379,-1.58e-4 0.661625,0.29608 0.661466,0.661459 -1.3e-4,0.365175 -0.296291,0.661098 -0.661466,0.66094 -0.364974,-1.27e-4 -0.660808,-0.295966 -0.660935,-0.66094 -1.58e-4,-0.365178 0.295757,-0.661332 0.660935,-0.661459 z m 14.926431,0.0016 c 0.364496,-9e-5 0.659998,0.295413 0.659908,0.659908 -1.96e-4,0.364291 -0.295616,0.659479 -0.659908,0.659389 -0.364291,9e-5 -0.659712,-0.295098 -0.659908,-0.659389 -8.9e-5,-0.364495 0.295413,-0.659998 0.659908,-0.659908 z m 1.773534,0 c 0.364292,1.96e-4 0.659482,0.295616 0.659392,0.659908 -1.96e-4,0.36409 -0.295301,0.659193 -0.659392,0.659389 -0.364291,9e-5 -0.659712,-0.295098 -0.659908,-0.659389 -9e-5,-0.364495 0.295413,-0.659998 0.659908,-0.659908 z"
           style="opacity:1;fill:#ffffff;fill-opacity:1;stroke:none;stroke-width:1.32647181;stroke-linecap:round;stroke-linejoin:round;stroke-miterlimit:4;stroke-dasharray:none;stroke-dashoffset:0;stroke-opacity:1" />
      </g>
    </g>
    <g
       id="g5991"
       transform="translate(4.9225163,0.22194011)">
      <text
         id="text5978"
         y="240.80656"
         x="35.40247"
         style="font-style:normal;font-variant:normal;font-weight:300;font-stretch:normal;font-size:7.05555534px;line-height:6.61458302px;font-family:'Source Sans Pro';-inkscape-font-specification:'Source Sans Pro, Light';font-variant-ligatures:normal;font-variant-caps:normal;font-variant-numeric:normal;font-feature-settings:normal;text-align:start;letter-spacing:0px;word-spacing:0px;writing-mode:lr-tb;text-anchor:start;fill:#ffffff;fill-opacity:1;stroke:none;stroke-width:0.26458332px;stroke-linecap:butt;stroke-linejoin:miter;stroke-opacity:1"
         xml:space="preserve"><tspan
           style="font-style:normal;font-variant:normal;font-weight:300;font-stretch:normal;font-size:7.05555534px;font-family:'Source Sans Pro';-inkscape-font-specification:'Source Sans Pro, Light';font-variant-ligatures:normal;font-variant-caps:normal;font-variant-numeric:normal;font-feature-settings:normal;text-align:start;writing-mode:lr-tb;text-anchor:start;fill:#ffffff;stroke-width:0.26458332px"
           y="245.87775"
           x="35.40247"
           id="tspan5976"
           sodipodi:role="line" /><tspan
           id="tspan5980"
           style="font-style:normal;font-variant:normal;font-weight:300;font-stretch:normal;font-size:7.05555534px;font-family:'Source Sans Pro';-inkscape-font-specification:'Source Sans Pro, Light';font-variant-ligatures:normal;font-variant-caps:normal;font-variant-numeric:normal;font-feature-settings:normal;text-align:start;writing-mode:lr-tb;text-anchor:start;fill:#ffffff;stroke-width:0.26458332px"
           y="252.49232"
           x="35.40247"
           sodipodi:role="line">Vols for Women in STEM</tspan></text>
      <text
         id="text5984"
         y="243.88019"
         x="34.344135"
         style="font-style:normal;font-variant:normal;font-weight:bold;font-stretch:normal;font-size:14.11111069px;line-height:6.61458302px;font-family:'Source Sans Pro';-inkscape-font-specification:'Source Sans Pro, Bold';font-variant-ligatures:normal;font-variant-caps:normal;font-variant-numeric:normal;font-feature-settings:normal;text-align:start;letter-spacing:0px;word-spacing:0px;writing-mode:lr-tb;text-anchor:start;fill:#ffffff;fill-opacity:1;stroke:none;stroke-width:0.26458332px;stroke-linecap:butt;stroke-linejoin:miter;stroke-opacity:1"
         xml:space="preserve"><tspan
           style="font-style:normal;font-variant:normal;font-weight:bold;font-stretch:normal;font-size:14.11111069px;font-family:'Source Sans Pro';-inkscape-font-specification:'Source Sans Pro, Bold';font-variant-ligatures:normal;font-variant-caps:normal;font-variant-numeric:normal;font-feature-settings:normal;text-align:start;writing-mode:lr-tb;text-anchor:start;fill:#ffffff;stroke-width:0.26458332px"
           y="243.88019"
           x="34.344135"
           id="tspan5982"
           sodipodi:role="line">Pipeline:</tspan></text>
    </g>
  </g>
</svg>
