<?xml version="1.0" encoding="UTF-8" standalone="no"?>
<!-- Created with Inkscape (http://www.inkscape.org/) -->

<svg
   xmlns:dc="http://purl.org/dc/elements/1.1/"
   xmlns:cc="http://creativecommons.org/ns#"
   xmlns:rdf="http://www.w3.org/1999/02/22-rdf-syntax-ns#"
   xmlns:svg="http://www.w3.org/2000/svg"
   xmlns="http://www.w3.org/2000/svg"
   xmlns:sodipodi="http://sodipodi.sourceforge.net/DTD/sodipodi-0.dtd"
   xmlns:inkscape="http://www.inkscape.org/namespaces/inkscape"
   width="5in"
   height="5in"
   viewBox="0 0 127 127"
   version="1.1"
   id="svg5070"
   inkscape:version="0.91 r13725"
   sodipodi:docname="pipeline-announcement.svg"
   inkscape:export-filename="C:\Users\hqp\Documents\GitHub\pipelineutk\marketing\accounts-name-change-proposal.png"
   inkscape:export-xdpi="600"
   inkscape:export-ydpi="600">
  <defs
     id="defs5064">
    <inkscape:perspective
       id="perspective7456"
       inkscape:persp3d-origin="372.04724 : 350.78739 : 1"
       inkscape:vp_z="744.09448 : 526.18108 : 1"
       inkscape:vp_y="0 : 999.99999 : 0"
       inkscape:vp_x="0 : 526.18108 : 1"
       sodipodi:type="inkscape:persp3d" />
    <inkscape:path-effect
       is_visible="true"
       id="path-effect4579"
       effect="spiro" />
    <inkscape:path-effect
       is_visible="true"
       id="path-effect4579-1"
       effect="spiro" />
  </defs>
  <sodipodi:namedview
     id="base"
     pagecolor="#ffffff"
     bordercolor="#666666"
     borderopacity="1.0"
     inkscape:pageopacity="0.0"
     inkscape:pageshadow="2"
     inkscape:zoom="1.4"
     inkscape:cx="176.17329"
     inkscape:cy="266.18739"
     inkscape:document-units="mm"
     inkscape:current-layer="g5991"
     showgrid="false"
     units="in"
     width="5in"
     inkscape:window-width="1920"
     inkscape:window-height="1017"
     inkscape:window-x="1912"
     inkscape:window-y="-8"
     inkscape:window-maximized="1" />
  <metadata
     id="metadata5067">
    <rdf:RDF>
      <cc:Work
         rdf:about="">
        <dc:format>image/svg+xml</dc:format>
        <dc:type
           rdf:resource="http://purl.org/dc/dcmitype/StillImage" />
        <dc:title />
      </cc:Work>
    </rdf:RDF>
  </metadata>
  <g
     inkscape:label="Layer 1"
     inkscape:groupmode="layer"
     id="layer1"
     transform="translate(0,-170)"
     sodipodi:insensitive="true">
    <rect
       style="opacity:1;fill:#754a7e;fill-opacity:1;stroke:none;stroke-width:6.44620991;stroke-linecap:round;stroke-linejoin:round;stroke-miterlimit:4;stroke-dasharray:none;stroke-dashoffset:0;stroke-opacity:1"
       id="rect5615"
       width="127"
       height="127"
       x="-4.4408921e-016"
       y="170" />
  </g>
  <g
     inkscape:groupmode="layer"
     id="layer2"
     inkscape:label="Layer 2">
    <g
       transform="matrix(1.25,0,0,1.25,-14.243211,-285.11066)"
       id="layer1-9"
       inkscape:label="Layer 1">
      <rect
         y="228.20297"
         x="11.519169"
         height="31.500799"
         width="101.3508"
         id="rect5946"
         style="opacity:1;fill:#754a7e;fill-opacity:1;stroke:#754a7e;stroke-width:0.24920045;stroke-linecap:round;stroke-linejoin:round;stroke-miterlimit:4;stroke-dasharray:none;stroke-dashoffset:0;stroke-opacity:1" />
      <g
         transform="translate(13.502075,0.22194011)"
         id="g5991">
        <text
           xml:space="preserve"
           style="font-style:normal;font-variant:normal;font-weight:300;font-stretch:normal;font-size:7.05555534px;line-height:6.61458302px;font-family:'Source Sans Pro';-inkscape-font-specification:'Source Sans Pro, Light';text-align:start;letter-spacing:0px;word-spacing:0px;writing-mode:lr-tb;text-anchor:start;fill:#ffffff;fill-opacity:1;stroke:none;stroke-width:0.26458332px;stroke-linecap:butt;stroke-linejoin:miter;stroke-opacity:1"
           x="15.323313"
           y="250.28918"
           id="text5978"><tspan
             sodipodi:role="line"
             id="tspan5976"
             x="15.323313"
             y="250.28918"
             style="font-style:normal;font-variant:normal;font-weight:300;font-stretch:normal;font-size:7.05555534px;font-family:'Source Sans Pro';-inkscape-font-specification:'Source Sans Pro, Light';text-align:start;writing-mode:lr-tb;text-anchor:start;fill:#ffffff;stroke-width:0.26458332px" /><tspan
             sodipodi:role="line"
             x="15.323313"
             y="256.90375"
             style="font-style:normal;font-variant:normal;font-weight:300;font-stretch:normal;font-size:7.05555534px;font-family:'Source Sans Pro';-inkscape-font-specification:'Source Sans Pro, Light';text-align:start;letter-spacing:-0.45155555px;writing-mode:lr-tb;text-anchor:start;fill:#ffffff;stroke-width:0.26458332px"
             id="tspan4755">vols for women in stem</tspan></text>
        <text
           xml:space="preserve"
           style="font-style:normal;font-variant:normal;font-weight:bold;font-stretch:normal;font-size:14.11111069px;line-height:6.61458302px;font-family:'Source Sans Pro';-inkscape-font-specification:'Source Sans Pro, Bold';text-align:start;letter-spacing:0px;word-spacing:0px;writing-mode:lr-tb;text-anchor:start;fill:#ffffff;fill-opacity:1;stroke:none;stroke-width:0.26458332px;stroke-linecap:butt;stroke-linejoin:miter;stroke-opacity:1"
           x="14.264979"
           y="247.04106"
           id="text5984"><tspan
             sodipodi:role="line"
             id="tspan5982"
             x="14.264979"
             y="247.04106"
             style="font-style:normal;font-variant:normal;font-weight:bold;font-stretch:normal;font-size:14.11111069px;font-family:'Source Sans Pro';-inkscape-font-specification:'Source Sans Pro, Bold';text-align:start;writing-mode:lr-tb;text-anchor:start;fill:#ffffff;stroke-width:0.26458332px">Pipeline</tspan></text>
      </g>
    </g>
    <g
       id="g6501"
       transform="translate(-8.3381862,3.1750001)">
      <text
         id="text6383"
         y="48.574665"
         x="48.971371"
         style="font-style:normal;font-variant:normal;font-weight:normal;font-stretch:normal;font-size:7.05555534px;line-height:6.3499999px;font-family:'Source Sans Pro';-inkscape-font-specification:'Source Sans Pro, Normal';font-variant-ligatures:normal;font-variant-caps:normal;font-variant-numeric:normal;font-feature-settings:normal;text-align:start;letter-spacing:0px;word-spacing:0px;writing-mode:lr-tb;text-anchor:start;fill:#ffffff;fill-opacity:1;stroke:none;stroke-width:0.26458332px;stroke-linecap:butt;stroke-linejoin:miter;stroke-opacity:1"
         xml:space="preserve"><tspan
           style="font-style:normal;font-variant:normal;font-weight:600;font-stretch:normal;font-size:7.05555534px;font-family:'Source Sans Pro';-inkscape-font-specification:'Source Sans Pro Semi-Bold';font-variant-ligatures:normal;font-variant-caps:normal;font-variant-numeric:normal;font-feature-settings:normal;text-align:start;writing-mode:lr-tb;text-anchor:start;fill:#ffffff;stroke-width:0.26458332px"
           y="48.574665"
           x="48.971371"
           id="tspan6381"
           sodipodi:role="line">pipeline.utk.edu</tspan></text>
      <path
         style="fill:#ffffff"
         d="m 32.402509,51.354877 c -0.598697,0 -1.161675,-0.233129 -1.585012,-0.656465 -0.874012,-0.874013 -0.874012,-2.296157 0,-3.170169 l 0.80625,-0.80625 c 0.186532,-0.186532 0.489041,-0.186532 0.675574,0 0.186532,0.186533 0.186532,0.489041 0,0.675574 l -0.80625,0.806249 c -0.501535,0.501536 -0.501535,1.317487 0,1.818875 0.242831,0.242978 0.565918,0.37674 0.909438,0.37674 0.343519,0 0.666607,-0.133762 0.909437,-0.37674 l 1.7639,-1.7639 c 0.501536,-0.501535 0.501536,-1.317487 0,-1.818875 -0.186532,-0.186532 -0.186532,-0.489041 0,-0.675574 0.186533,-0.186532 0.489042,-0.186532 0.675574,0 0.874013,0.874012 0.874013,2.296157 0,3.17017 l -1.7639,1.7639 c -0.423483,0.423336 -0.986314,0.656612 -1.585158,0.656612 z m 1.692609,-3.45651 c -0.122297,0 -0.244447,-0.0466 -0.337787,-0.139936 -0.874012,-0.874012 -0.874012,-2.296157 0,-3.170169 l 1.763901,-1.763901 c 0.423335,-0.423335 0.986313,-0.656611 1.58501,-0.656611 0.598697,0 1.161675,0.233128 1.585159,0.656465 0.874012,0.874012 0.874012,2.296156 0,3.170169 l -0.806249,0.80625 c -0.186533,0.186532 -0.489042,0.186532 -0.675574,0 -0.186533,-0.186533 -0.186533,-0.489042 0,-0.675574 l 0.806249,-0.80625 c 0.501536,-0.501535 0.501536,-1.317486 0,-1.818875 -0.242977,-0.242978 -0.565918,-0.376739 -0.909437,-0.376739 -0.34352,0 -0.666608,0.133761 -0.909438,0.376739 l -1.7639,1.7639 c -0.501536,0.501536 -0.501536,1.317487 0,1.818876 0.186533,0.186532 0.186533,0.489041 0,0.675573 -0.09319,0.09334 -0.21549,0.139936 -0.337787,0.139936 z"
         id="path6"
         inkscape:connector-curvature="0" />
    </g>
    <g
       id="g6411"
       transform="translate(1.0977408,-19.803155)">
      <g
         id="g1278"
         transform="matrix(0.37629629,0,0,-0.37629629,29.37615,81.247985)"
         style="opacity:1;filter:url(#filter7001)">
        <path
           inkscape:connector-curvature="0"
           d="m 0,0 -21.714,0 c -0.744,0 -1.347,-0.604 -1.347,-1.348 l 0,-21.714 c 0,-0.744 0.603,-1.347 1.347,-1.347 l 11.69,0 0,9.452 -3.181,0 0,3.685 3.181,0 0,2.715 c 0,3.153 1.926,4.869 4.738,4.869 1.347,0 2.505,-0.1 2.843,-0.144 l 0,-3.295 -1.951,-0.001 c -1.529,0 -1.826,-0.726 -1.826,-1.794 l 0,-2.35 3.648,0 -0.475,-3.685 -3.173,0 0,-9.452 6.22,0 c 0.744,0 1.348,0.603 1.348,1.347 l 0,21.714 C 1.348,-0.604 0.744,0 0,0"
           style="fill:#ffffff;fill-opacity:1;fill-rule:nonzero;stroke:none"
           id="path1280" />
      </g>
      <text
         id="text6387"
         y="87.660828"
         x="40.063892"
         style="font-style:normal;font-variant:normal;font-weight:normal;font-stretch:normal;font-size:7.05555534px;line-height:6.3499999px;font-family:'Source Sans Pro';-inkscape-font-specification:'Source Sans Pro, Normal';text-align:start;letter-spacing:0px;word-spacing:0px;writing-mode:lr-tb;text-anchor:start;fill:#ffffff;fill-opacity:1;stroke:none;stroke-width:0.26458332px;stroke-linecap:butt;stroke-linejoin:miter;stroke-opacity:1"
         xml:space="preserve"><tspan
           style="font-style:normal;font-variant:normal;font-weight:600;font-stretch:normal;font-size:7.05555534px;font-family:'Source Sans Pro';-inkscape-font-specification:'Source Sans Pro Semi-Bold';text-align:start;writing-mode:lr-tb;text-anchor:start;fill:#ffffff;stroke-width:0.26458332px"
           y="87.660828"
           x="40.063892"
           id="tspan6385"
           sodipodi:role="line">/pipelineutk</tspan></text>
    </g>
    <g
       id="g6428"
       transform="translate(1.0962359,-22.411057)">
      <g
         id="g1230"
         transform="matrix(0.37629629,0,0,-0.37629629,29.881892,101.70249)"
         style="opacity:1;filter:url(#filter7001)">
        <path
           inkscape:connector-curvature="0"
           d="m 0,0 c -0.901,-0.395 -1.868,-0.664 -2.875,-0.785 1.035,0.621 1.828,1.598 2.198,2.766 C -1.643,1.41 -2.713,0.995 -3.853,0.77 c -0.915,0.97 -2.214,1.582 -3.652,1.582 -2.767,0 -5.01,-2.244 -5.01,-5.009 0,-0.391 0.044,-0.774 0.129,-1.14 -4.16,0.209 -7.847,2.202 -10.316,5.231 -0.431,-0.741 -0.677,-1.598 -0.677,-2.517 0,-1.74 0.882,-3.27 2.227,-4.168 -0.822,0.024 -1.594,0.25 -2.267,0.629 l 0,-0.065 c 0,-2.428 1.724,-4.449 4.015,-4.909 -0.423,-0.116 -0.866,-0.176 -1.317,-0.176 -0.326,0 -0.636,0.032 -0.946,0.092 0.64,-1.989 2.488,-3.438 4.679,-3.479 -1.716,-1.345 -3.873,-2.142 -6.213,-2.142 -0.411,0 -0.81,0.024 -1.2,0.069 2.214,-1.422 4.847,-2.251 7.674,-2.251 9.206,0 14.243,7.63 14.243,14.246 0,0.217 -0.004,0.435 -0.012,0.647 C -1.521,-1.885 -0.677,-1.002 0,0"
           style="fill:#ffffff;fill-opacity:1;fill-rule:nonzero;stroke:none"
           id="path1232" />
      </g>
      <text
         id="text6387-3"
         y="106.36264"
         x="39.774616"
         style="font-style:normal;font-variant:normal;font-weight:normal;font-stretch:normal;font-size:7.05555534px;line-height:6.3499999px;font-family:'Source Sans Pro';-inkscape-font-specification:'Source Sans Pro, Normal';text-align:start;letter-spacing:0px;word-spacing:0px;writing-mode:lr-tb;text-anchor:start;fill:#ffffff;fill-opacity:1;stroke:none;stroke-width:0.26458332px;stroke-linecap:butt;stroke-linejoin:miter;stroke-opacity:1"
         xml:space="preserve"><tspan
           style="font-style:normal;font-variant:normal;font-weight:600;font-stretch:normal;font-size:7.05555534px;font-family:'Source Sans Pro';-inkscape-font-specification:'Source Sans Pro Semi-Bold';text-align:start;writing-mode:lr-tb;text-anchor:start;fill:#ffffff;stroke-width:0.26458332px"
           y="106.36264"
           x="39.774616"
           id="tspan6385-1"
           sodipodi:role="line">@pipelineutk</tspan></text>
    </g>
    <g
       id="g6515"
       transform="translate(-8.3381862,-5.0045262)">
      <g
         transform="matrix(0.07350763,0,0,0.07350763,24.613768,93.268799)"
         id="g6463">
        <g
           id="Layer_1_1_" />
        <g
           id="Layer_3" />
        <g
           id="Layer_4" />
        <g
           id="Layer_2">
          <g
             id="g6443">
            <rect
               style="fill:#ffffff"
               x="128.5"
               y="127.3"
               transform="matrix(0.9482,-0.3176,0.3176,0.9482,-36.0197,50.6366)"
               class="st0"
               width="17.6"
               height="17"
               id="rect6435" />
            <g
               id="g6441">
              <rect
                 style="fill:#ffffff"
                 x="128.5"
                 y="127.3"
                 transform="matrix(0.9482,-0.3176,0.3176,0.9482,-36.0197,50.6366)"
                 class="st0"
                 width="17.6"
                 height="17"
                 id="rect6437" />
              <path
                 style="fill:#ffffff"
                 inkscape:connector-curvature="0"
                 class="st0"
                 d="m 194.6,118.5 c -12.9,-43 -31.5,-53 -74.5,-40.1 -43,12.9 -53,31.5 -40.1,74.5 12.9,43 31.5,53 74.5,40.1 43,-12.9 53,-31.5 40.1,-74.5 z m -21.7,27.9 -8.1,2.7 2.8,8.4 c 1.1,3.4 -0.7,7.1 -4.1,8.2 -0.7,0.2 -1.5,0.4 -2.2,0.3 -2.6,-0.1 -5.1,-1.8 -6,-4.4 l -2.8,-8.4 -16.7,5.6 2.8,8.4 c 1.1,3.4 -0.7,7.1 -4.1,8.2 -0.7,0.2 -1.5,0.4 -2.2,0.3 -2.6,-0.1 -5.1,-1.8 -6,-4.4 l -2.8,-8.4 -8.1,2.7 c -0.7,0.2 -1.5,0.4 -2.2,0.3 -2.6,-0.1 -5.1,-1.8 -6,-4.4 -1.1,-3.4 0.7,-7.1 4.1,-8.2 l 8.1,-2.7 -5.4,-16.1 -8.1,2.7 c -0.7,0.2 -1.5,0.4 -2.2,0.3 -2.6,-0.1 -5.1,-1.8 -6,-4.4 -1.1,-3.4 0.7,-7.1 4.1,-8.2 l 8.1,-2.7 -2.8,-8.4 c -1.1,-3.4 0.7,-7.1 4.1,-8.2 3.4,-1.1 7.1,0.7 8.2,4.1 l 2.8,8.4 16.7,-5.6 -2.8,-8.4 c -1.1,-3.4 0.7,-7.1 4.1,-8.2 3.4,-1.1 7.1,0.7 8.2,4.1 l 2.8,8.4 8.1,-2.7 c 3.4,-1.1 7.1,0.7 8.2,4.1 1.1,3.4 -0.7,7.1 -4.1,8.2 l -8.1,2.7 5.4,16.1 8.1,-2.7 c 3.4,-1.1 7.1,0.7 8.2,4.1 1.1,3.4 -0.7,7.1 -4.1,8.2 z"
                 id="path6439" />
            </g>
          </g>
        </g>
      </g>
      <text
         xml:space="preserve"
         style="font-style:normal;font-variant:normal;font-weight:normal;font-stretch:normal;font-size:7.05555534px;line-height:6.3499999px;font-family:'Source Sans Pro';-inkscape-font-specification:'Source Sans Pro, Normal';text-align:start;letter-spacing:0px;word-spacing:0px;writing-mode:lr-tb;text-anchor:start;fill:#ffffff;fill-opacity:1;stroke:none;stroke-width:0.26458332px;stroke-linecap:butt;stroke-linejoin:miter;stroke-opacity:1"
         x="48.971371"
         y="105.05706"
         id="text6383-9"><tspan
           sodipodi:role="line"
           id="tspan6381-4"
           x="48.971371"
           y="105.05706"
           style="font-style:normal;font-variant:normal;font-weight:600;font-stretch:normal;font-size:7.05555534px;font-family:'Source Sans Pro';-inkscape-font-specification:'Source Sans Pro Semi-Bold';text-align:start;writing-mode:lr-tb;text-anchor:start;fill:#ffffff;stroke-width:0.26458332px">pipelineutk.slack.com</tspan></text>
    </g>
    <g
       id="g4936">
      <text
         xml:space="preserve"
         style="font-style:normal;font-variant:normal;font-weight:normal;font-stretch:normal;font-size:7.0555563px;line-height:6.3499999px;font-family:'Source Sans Pro';-inkscape-font-specification:'Source Sans Pro, Normal';text-align:start;letter-spacing:0px;word-spacing:0px;writing-mode:lr-tb;text-anchor:start;fill:#ffffff;fill-opacity:1;stroke:none;stroke-width:0.26458332px;stroke-linecap:butt;stroke-linejoin:miter;stroke-opacity:1"
         x="40.612385"
         y="116.1535"
         id="text6387-5"><tspan
           sodipodi:role="line"
           id="tspan6385-6"
           x="40.612385"
           y="116.1535"
           style="font-style:normal;font-variant:normal;font-weight:600;font-stretch:normal;font-size:7.0555563px;font-family:'Source Sans Pro';-inkscape-font-specification:'Source Sans Pro Semi-Bold';text-align:start;writing-mode:lr-tb;text-anchor:start;fill:#ffffff;stroke-width:0.26458332px">pipelineutk</tspan></text>
      <g
         id="g196"
         transform="matrix(0.28193008,0,0,-0.28193008,26.205927,109.86107)">
        <path
           d="m 0,0 c -8.995,0 -16.288,-7.293 -16.288,-16.29 0,-7.197 4.667,-13.302 11.14,-15.457 0.815,-0.149 1.112,0.354 1.112,0.786 0,0.386 -0.014,1.411 -0.022,2.77 -4.531,-0.984 -5.487,2.184 -5.487,2.184 -0.741,1.882 -1.809,2.383 -1.809,2.383 -1.479,1.01 0.112,0.99 0.112,0.99 1.635,-0.115 2.495,-1.679 2.495,-1.679 1.453,-2.489 3.813,-1.77 4.741,-1.353 0.148,1.052 0.568,1.77 1.034,2.177 -3.617,0.411 -7.42,1.809 -7.42,8.051 0,1.778 0.635,3.232 1.677,4.371 -0.168,0.412 -0.727,2.068 0.159,4.311 0,0 1.368,0.438 4.48,-1.67 1.299,0.362 2.693,0.542 4.078,0.548 1.383,-0.006 2.777,-0.186 4.078,-0.548 3.11,2.108 4.475,1.67 4.475,1.67 0.889,-2.243 0.33,-3.899 0.162,-4.311 1.044,-1.139 1.675,-2.593 1.675,-4.371 0,-6.258 -3.809,-7.635 -7.438,-8.038 0.585,-0.503 1.106,-1.497 1.106,-3.017 0,-2.177 -0.02,-3.934 -0.02,-4.468 0,-0.436 0.293,-0.943 1.12,-0.784 6.468,2.159 11.131,8.26 11.131,15.455 C 16.291,-7.293 8.997,0 0,0"
           style="fill:#ffffff;fill-opacity:1;fill-rule:evenodd;stroke:none"
           id="path198"
           inkscape:connector-curvature="0" />
      </g>
    </g>
  </g>
  <g
     inkscape:groupmode="layer"
     id="layer3"
     inkscape:label="Layer 3" />
  <style
     id="style6430"
     type="text/css">
	.st0{fill:#FFFFFF;}
</style>
</svg>
